<svg width="496" height="518" viewBox="0 0 496 518" fill="none" xmlns="http://www.w3.org/2000/svg">
<g filter="url(#filter0_d_3015_9360)">
<g clip-path="url(#clip0_3015_9360)">
<rect width="496" height="514" rx="24" fill="#EDE8F7"/>
<path d="M435.268 456.81V526.548H505.006V456.81H435.268ZM440.574 521.277V462.08H499.753V521.277H440.574Z" fill="#EBEBEB"/>
<path d="M467.263 334.931H263.23V538.964H467.263V334.931Z" fill="#495EE9"/>
<path d="M302.547 538.964H416.06C416.538 534.63 399.152 442.395 378.741 412.734C376.424 409.374 356.562 406.915 349.275 415.281C310.683 459.621 301.628 537.902 302.547 538.964Z" fill="#263238"/>
<path d="M381.429 420.393C384.648 428.741 396.799 457.994 403.414 479.006C407.835 493.155 409.533 504.917 410.488 508.03C410.488 508.03 376.884 497.276 369.42 497.259C357.8 497.259 339.158 521.489 343.722 524.531C350.92 529.324 385.179 545.578 412.558 550.69C427.432 553.467 455.448 534.56 453.237 519.526C450.142 498.426 412.01 442.819 397.507 427.043C389.99 418.854 377.485 410.223 381.429 420.393Z" fill="#EB9481"/>
<path d="M455.307 523.983C454.6 539.176 435.587 551.981 424.568 552.653C405.555 553.803 348.515 537.195 348.515 537.195L370.677 494.464C370.677 494.464 409.587 507.641 410.489 508.012C410.153 506.88 400.585 470.87 396.34 459.038C396.11 458.383 395.845 457.711 395.597 457.004C394.359 453.696 392.679 449.346 390.804 444.623C389.778 442.006 388.682 439.317 387.603 436.593C382.916 424.956 378.353 413.866 378.353 413.866C384.879 414.945 391.335 418.376 401.929 429.501C412.523 440.626 456.457 498.921 455.307 523.983Z" fill="#263238"/>
<path d="M363.336 527.945C364.928 524.92 366.537 521.914 368.112 518.889C369.686 515.865 371.26 512.982 372.852 510.046C374.568 507.037 376.132 503.944 377.539 500.778C375.593 503.463 373.821 506.269 372.233 509.179C370.535 512.127 368.872 515.11 367.245 518.129C365.618 521.147 364.055 524.095 362.558 526.972C360.913 530.029 359.483 533.196 358.278 536.452C358.278 536.593 358.402 536.717 358.49 536.594C360.263 533.802 361.881 530.914 363.336 527.945Z" fill="#37474F"/>
<path d="M422.357 514.326L410.507 508.03C410.171 506.898 400.602 470.888 396.358 459.056C396.128 458.401 395.862 457.729 395.615 457.022C394.377 453.714 392.697 449.363 390.822 444.641L422.357 514.326Z" fill="#37474F"/>
<path d="M432.155 519.544C428.834 517.097 425.361 514.864 421.756 512.859C419.987 511.85 418.218 510.913 416.273 510.082C414.327 509.251 412.169 508.543 410.189 507.641C410.029 507.641 409.923 507.818 410.082 507.871C411.851 508.72 413.62 509.887 415.477 510.86C417.334 511.833 419.191 512.859 421.066 513.831C424.762 515.724 428.388 517.74 432.067 519.686C432.155 519.739 432.314 519.597 432.155 519.544Z" fill="#37474F"/>
<path d="M423.471 510.329C420.482 510.329 402.53 505.571 399.913 508.048C383.995 523.064 378.936 520.039 375.54 522.002C349.276 537.107 314.186 554.864 301.663 554.97C282.686 555.129 275.134 539.194 278.282 524.142C284.525 494.376 324.656 436.346 342.82 420.923C352.459 412.752 351.663 425.08 347.702 438.451C345.367 446.304 341.281 457.906 337.09 469.42C333.393 479.625 323.613 505.695 323.436 506.314C323.436 506.314 323.436 506.314 323.63 506.314C324.479 506.155 346.941 495.579 369.527 489.76C377.486 487.708 394.058 484.79 400.001 487.443C403.538 489.017 403.538 491.139 403.538 491.139C405.688 491.124 407.767 491.906 409.375 493.332C410.594 494.374 411.49 495.742 411.957 497.276C413.72 497.527 415.365 498.304 416.679 499.505C417.812 500.723 418.54 502.261 418.767 503.909C423.1 505.165 423.471 510.329 423.471 510.329Z" fill="#EB9481"/>
<path d="M396.94 490.715C394.564 490.786 392.198 491.052 389.866 491.511C389.707 491.511 389.707 491.776 389.866 491.758C392.165 491.511 394.517 491.458 396.834 491.387C399.151 491.316 401.486 491.263 403.803 491.299C401.538 490.893 399.241 490.698 396.94 490.715Z" fill="#263238"/>
<path d="M412.028 497.259C407.982 495.966 403.699 495.585 399.488 496.145C399.461 496.155 399.438 496.173 399.421 496.197C399.405 496.221 399.396 496.249 399.396 496.278C399.396 496.307 399.405 496.335 399.421 496.359C399.438 496.382 399.461 496.4 399.488 496.411C403.691 496.184 407.906 496.499 412.028 497.348C412.028 497.348 412.081 497.277 412.028 497.259Z" fill="#263238"/>
<path d="M418.872 503.909C415.119 502.315 411.063 501.554 406.987 501.68C406.828 501.68 406.775 501.91 406.987 501.928C410.992 502.301 414.957 503.023 418.837 504.086C418.908 504.104 418.961 503.944 418.872 503.909Z" fill="#263238"/>
<path d="M368.519 490.149C366.537 490.47 364.577 490.907 362.647 491.458C360.577 491.971 358.526 492.519 356.527 493.226C352.504 494.566 348.56 496.131 344.713 497.913C344.694 497.906 344.674 497.903 344.653 497.905C344.633 497.907 344.614 497.915 344.597 497.926C344.581 497.937 344.567 497.953 344.557 497.97C344.548 497.988 344.543 498.008 344.543 498.028C344.543 498.049 344.548 498.069 344.557 498.086C344.567 498.104 344.581 498.12 344.597 498.131C344.614 498.142 344.633 498.149 344.653 498.151C344.674 498.154 344.694 498.151 344.713 498.143C348.639 496.764 352.619 495.473 356.598 494.235L362.435 492.324C364.433 491.67 366.52 491.175 368.483 490.432C368.643 490.344 368.643 490.131 368.519 490.149Z" fill="#263238"/>
<path d="M352.724 494.411C354.662 493.651 356.699 493.175 358.773 492.996L382.402 532.897C382.402 532.897 317.298 556.332 303.945 557.658C300.325 557.956 296.682 557.51 293.241 556.349C289.799 555.188 286.631 553.335 283.931 550.906C281.232 548.476 279.057 545.52 277.541 542.219C276.025 538.919 275.2 535.343 275.115 531.712C274.744 508.136 313.212 451.503 332.561 429.59C341.405 419.561 351.751 412.274 354.387 413.919C357.5 415.865 351.858 428.475 348.869 437.885C343.368 455.271 323.647 506.385 323.647 506.385C323.647 506.385 347.843 496.02 352.724 494.411Z" fill="#263238"/>
<path d="M358.632 492.961C354.953 493.173 339.176 498.691 331.323 502.034C323.565 505.326 316.133 509.341 309.127 514.025C305.183 516.696 301.415 519.597 297.719 522.603C297.705 522.613 297.693 522.624 297.684 522.638C297.674 522.652 297.668 522.668 297.665 522.684C297.661 522.701 297.661 522.718 297.665 522.734C297.668 522.751 297.674 522.766 297.684 522.78C297.693 522.794 297.705 522.806 297.719 522.815C297.733 522.825 297.748 522.831 297.765 522.834C297.781 522.838 297.798 522.838 297.814 522.834C297.831 522.831 297.846 522.825 297.86 522.815C311.698 513.247 326.522 505.189 342.077 498.779C346.516 497.011 354.157 494.464 358.49 493.332C359.657 493.014 358.738 492.943 358.632 492.961Z" fill="#37474F"/>
<path d="M343.015 458.065C342.025 459.657 341.016 461.249 340.167 462.929L340.061 463.177C341.317 459.339 342.52 455.501 343.599 451.627C343.599 451.397 343.28 451.273 343.192 451.503C337.603 465.653 332.403 479.996 327.362 494.376C325.965 498.408 324.727 502.458 323.454 506.526C323.454 506.668 323.63 506.739 323.684 506.526C325.222 502.989 326.779 499.593 328.176 496.038C329.573 492.483 330.9 488.964 332.209 485.426C334.567 479.189 336.783 472.91 338.859 466.59C339.513 465.493 340.185 464.379 340.822 463.265C341.724 461.62 342.484 459.904 343.245 458.189C343.386 458.012 343.121 457.888 343.015 458.065Z" fill="#37474F"/>
<path d="M366.627 524.195C364.858 521.259 363.195 518.306 361.462 515.352C359.729 512.398 358.119 509.569 356.457 506.668C354.811 503.63 353.011 500.678 351.062 497.825C351.062 497.825 350.939 497.825 350.956 497.825C352.212 500.864 353.666 503.818 355.307 506.668C356.917 509.675 358.579 512.664 360.259 515.635C361.94 518.606 363.602 521.436 365.318 524.302C367.054 527.318 368.992 530.213 371.119 532.968C371.208 533.074 371.402 532.968 371.349 532.844C369.937 529.876 368.36 526.989 366.627 524.195Z" fill="#37474F"/>
<path d="M367.918 490.166C356.806 493.172 345.865 496.78 335.144 500.972L334.667 501.149C329.078 503.342 325.629 504.969 324.798 505.111L324.621 505.005C324.08 504.604 323.484 504.282 322.852 504.05C321.278 503.484 306.156 501.591 306.545 496.975C306.934 492.359 313.071 492.642 313.973 492.695C313.001 492.483 304.794 490.555 307.465 486.469C309.357 483.551 317.475 483.975 318.307 484.011C317.475 483.745 309.923 481.287 312.523 477.095C314.38 474.106 323.453 474.495 324.497 474.672C323.648 474.354 316.927 473.222 320.075 469.614C322.251 467.102 339.336 469.614 346.941 473.452C358.261 479.005 367.918 490.166 367.918 490.166Z" fill="#EB9481"/>
<path d="M335.144 500.973L334.666 501.15C328.515 497.041 321.597 494.22 314.327 492.855C313.831 492.855 313.796 492.519 314.327 492.537C321.962 493.169 329.223 496.112 335.144 500.973Z" fill="#263238"/>
<path d="M318.713 484.242C329.467 486.364 334.331 488.752 343.598 494.624C343.722 494.712 343.864 494.517 343.74 494.429C335.109 487.973 329.75 484.772 318.802 483.959C318.307 483.923 318.218 484.135 318.713 484.242Z" fill="#263238"/>
<path d="M324.868 474.797C335.197 477.556 340.645 479.926 348.958 486.665C349.152 486.824 349.4 486.665 349.205 486.399C342.816 479.658 334.216 475.44 324.975 474.514C324.302 474.443 324.214 474.638 324.868 474.797Z" fill="#263238"/>
<path d="M376.584 433.392C370.465 435.585 358.579 427.22 353.432 419.915C353.096 419.402 353.273 413.689 353.167 406.739C353.167 402.512 352.884 397.895 352.389 393.544L379.945 397.082C379.027 402.603 378.783 408.216 379.219 413.796C379.297 414.395 379.427 414.987 379.609 415.564C379.609 415.564 379.609 415.741 379.609 415.847C380.599 419.013 382.492 431.27 376.584 433.392Z" fill="#EB9481"/>
<path d="M379.679 415.741C379.741 415.938 379.788 416.139 379.821 416.342C363.337 415.635 357.058 408.383 352.99 401.433C352.867 398.78 352.69 396.127 352.389 393.544L379.945 397.082C379.017 402.602 378.774 408.216 379.219 413.796C379.288 414.397 379.419 414.99 379.609 415.564C379.609 415.564 379.644 415.635 379.679 415.741Z" fill="#263238"/>
<path d="M341.104 364.645C339.601 374.531 348.639 401.132 356.262 406.243C367.334 413.654 383.428 412.133 389.212 399.293C394.819 386.912 382.438 352.388 374.108 348.001C361.833 341.422 343.315 350.018 341.104 364.645Z" fill="#EB9481"/>
<path d="M366.573 376.601C366.573 376.601 366.467 376.742 366.573 376.813C367.228 378.581 367.67 380.739 366.255 381.871C366.255 381.871 366.255 381.995 366.255 381.96C368.112 381.058 367.493 378.192 366.573 376.601Z" fill="#263238"/>
<path d="M364.345 375.274C361.391 376.017 363.089 381.871 365.848 381.182C368.607 380.492 366.874 374.638 364.345 375.274Z" fill="#263238"/>
<path d="M377.627 373.276C377.627 373.276 377.804 373.276 377.821 373.4C378.299 375.168 379.148 377.255 380.952 377.379C380.952 377.379 380.952 377.468 380.952 377.485C378.883 377.786 377.786 375.098 377.627 373.276Z" fill="#263238"/>
<path d="M378.706 370.906C381.571 369.845 383.499 375.629 380.846 376.619C378.193 377.609 376.318 371.808 378.706 370.906Z" fill="#263238"/>
<path d="M361.25 373.258C361.963 372.811 362.648 372.321 363.301 371.79C364.062 371.224 364.751 370.853 365.07 369.915C365.137 369.637 365.111 369.345 364.996 369.083C364.881 368.821 364.683 368.604 364.433 368.465C363.898 368.274 363.322 368.228 362.763 368.33C362.204 368.433 361.682 368.681 361.25 369.049C360.256 369.671 359.53 370.643 359.216 371.773C359.151 372.035 359.166 372.31 359.259 372.563C359.351 372.817 359.517 373.037 359.735 373.197C359.953 373.356 360.213 373.447 360.483 373.458C360.753 373.469 361.019 373.399 361.25 373.258Z" fill="#263238"/>
<path d="M380.121 367.297C379.285 367.341 378.447 367.341 377.61 367.297C376.728 367.442 375.823 367.299 375.028 366.89C374.809 366.707 374.656 366.458 374.593 366.18C374.529 365.903 374.557 365.612 374.674 365.352C374.978 364.87 375.406 364.48 375.914 364.222C376.421 363.963 376.989 363.847 377.557 363.884C378.724 363.772 379.891 364.1 380.829 364.803C381.058 364.969 381.231 365.202 381.324 365.469C381.417 365.736 381.425 366.026 381.348 366.298C381.27 366.57 381.111 366.812 380.892 366.991C380.673 367.17 380.404 367.277 380.121 367.297Z" fill="#263238"/>
<path d="M371.119 387.461C371.789 388.042 372.571 388.48 373.417 388.747C374.262 389.015 375.153 389.107 376.036 389.018C376.812 388.942 377.575 388.757 378.3 388.469L378.706 388.292L379.095 388.116C379.185 388.066 379.256 387.99 379.3 387.898C379.345 387.807 379.36 387.703 379.343 387.603C379.35 387.544 379.35 387.485 379.343 387.426V387.267C378.972 385.869 378.229 383.729 378.229 383.729C378.813 383.853 381.766 384.26 381.501 383.535C379.505 377.275 376.874 371.236 373.648 365.512C373.648 365.318 373.259 365.512 373.33 365.654C375.098 371.455 377.964 376.885 379.891 382.686C378.835 382.536 377.764 382.536 376.708 382.686C376.531 382.792 378.229 386.683 378.353 387.337C377.243 387.79 376.054 388.012 374.856 387.991C373.658 387.97 372.477 387.705 371.384 387.214C371.066 387.178 370.96 387.355 371.119 387.461Z" fill="#263238"/>
<path opacity="0.2" d="M344.005 383.392C345.562 382.101 347.543 375.557 348.462 372.78C349.382 370.003 346.588 358.631 345.668 355.2C343.276 357.852 341.698 361.137 341.122 364.662C340.45 368.854 341.741 376.158 344.005 383.392Z" fill="#263238"/>
<path d="M370.057 358.543C369.427 359.957 368.447 361.186 367.209 362.114C365.971 363.043 364.516 363.64 362.983 363.849C361.411 364.054 359.813 363.854 358.34 363.269C356.867 362.684 355.567 361.733 354.564 360.506C354.564 360.418 354.405 360.506 354.458 360.595C355.393 361.979 356.687 363.082 358.201 363.786C359.715 364.49 361.393 364.769 363.054 364.592C364.679 364.332 366.208 363.65 367.487 362.613C368.766 361.576 369.75 360.222 370.34 358.685C370.305 358.508 370.111 358.419 370.057 358.543Z" fill="#263238"/>
<path d="M354.776 339.548C352.468 340.214 350.365 341.451 348.662 343.145C346.958 344.839 345.71 346.935 345.031 349.24C344.554 351.504 344.866 353.863 345.915 355.925C345.915 355.925 346.127 355.925 346.092 355.925C345.434 354.023 345.299 351.979 345.7 350.007C346.102 348.035 347.025 346.206 348.374 344.712C349.83 343.017 351.66 341.682 353.719 340.814C355.778 339.945 358.011 339.566 360.241 339.707C362.405 339.807 364.465 340.664 366.06 342.13C366.219 342.289 366.555 342.13 366.414 341.9C364.132 339.052 359.339 338.115 354.776 339.548Z" fill="#263238"/>
<path d="M387.408 342.148C385.863 339.878 383.563 338.23 380.917 337.496C377.256 336.47 373.843 337.761 370.412 339.123C370.412 339.123 370.412 339.3 370.412 339.265C373.206 337.891 376.34 337.356 379.432 337.726C382.02 338.233 384.359 339.605 386.064 341.617C387.4 343.259 388.233 345.252 388.465 347.355C388.696 349.459 388.316 351.585 387.369 353.479C386.423 355.372 384.95 356.952 383.128 358.029C381.306 359.106 379.212 359.634 377.097 359.551C376.991 359.551 376.956 359.746 377.097 359.746C379.221 359.892 381.343 359.441 383.224 358.443C385.104 357.444 386.667 355.939 387.735 354.097C388.803 352.256 389.333 350.152 389.266 348.024C389.199 345.896 388.537 343.83 387.355 342.059L387.408 342.148Z" fill="#263238"/>
<path d="M341.034 370.304C341.034 370.304 333.641 362.575 336.188 356.155C337.639 352.529 345.332 350.849 345.332 350.849C345.908 349.074 346.83 347.43 348.044 346.012C349.258 344.595 350.741 343.431 352.407 342.589C358.332 339.335 366.928 340.821 366.928 340.821C366.928 340.821 371.986 335.674 378.548 337.283C387.692 339.565 390.097 351.839 383.252 357.924C378.459 362.204 369.51 359.409 369.51 359.409C368.802 359.728 362.63 366.307 355.131 361.178C355.131 361.178 351.717 366.484 346.8 364.857C346.521 366.25 345.817 367.522 344.784 368.498C343.751 369.474 342.441 370.105 341.034 370.304Z" fill="#263238"/>
<path d="M350.231 386.063C350.231 386.063 342.59 378.281 338.964 381.146C335.339 384.011 342.113 396.02 347.1 396.975C347.73 397.146 348.388 397.187 349.034 397.095C349.68 397.003 350.301 396.781 350.859 396.442C351.416 396.103 351.899 395.654 352.278 395.122C352.656 394.591 352.923 393.987 353.061 393.35L350.231 386.063Z" fill="#EB9481"/>
<path d="M340.981 384.595V384.719C344.518 385.515 346.747 388.256 348.498 391.228C348.245 390.936 347.933 390.702 347.582 390.541C347.231 390.38 346.85 390.297 346.464 390.297C346.078 390.297 345.696 390.38 345.345 390.541C344.994 390.702 344.682 390.936 344.43 391.228C344.43 391.228 344.43 391.422 344.536 391.387C345.085 391.107 345.707 391.003 346.318 391.088C346.928 391.173 347.498 391.445 347.949 391.865C348.699 392.576 349.363 393.371 349.93 394.235C350.142 394.5 350.638 394.235 350.478 393.934C349.806 389.53 345.65 384.206 340.981 384.595Z" fill="#263238"/>
<path d="M379.59 415.157L373.736 431.376L353.22 412.009L347.914 418.677C347.914 418.677 368.448 449.893 368.501 448.443L374.532 434.488L384.348 443.668L382.579 419.773L379.59 415.157Z" fill="#EBEBEB"/>
<path d="M384.153 431.801C383.746 427.874 383.446 423.895 382.844 419.986C382.844 419.845 382.614 419.792 382.579 419.986C381.942 423.824 383.587 438.875 383.711 442.484C383.304 442.094 374.638 434.436 374.549 434.56C373.223 436.788 368.784 446.941 368.501 447.878C365.246 442.908 352.83 424.885 349.045 420.251C349.023 420.232 348.994 420.22 348.964 420.217C348.934 420.215 348.904 420.222 348.878 420.238C348.853 420.254 348.833 420.277 348.821 420.305C348.81 420.333 348.808 420.364 348.815 420.393C351.716 425.699 368.147 449.912 368.377 449.823C370.735 445.027 372.836 440.109 374.673 435.09C376.159 436.771 384.949 445.437 384.967 444.854C384.919 440.492 384.648 436.135 384.153 431.801Z" fill="#263238"/>
<path d="M249.152 233.074H40.4855V448.515H249.152V233.074Z" fill="#7D54CA"/>
<path d="M-10.3986 297.401V408.19H100.39V297.401H-10.3986ZM-2.03277 399.824V305.767H92.0246V399.824H-2.03277Z" fill="#A6A6A6"/>
<path d="M178.123 293.669C183.605 292.377 197.826 296.092 202.689 303.361C207.553 310.63 207.323 322.533 204.9 323.736C202.477 324.938 191.971 324.196 184.72 320.34C177.468 316.484 175.417 294.394 178.123 293.669Z" fill="#263238"/>
<path d="M178.105 293.704C177.928 293.704 177.893 293.368 178.105 293.351C182.934 293.156 188.116 294.712 192.732 295.968C196.558 296.77 200.174 298.367 203.344 300.655C204.806 301.823 205.996 303.295 206.833 304.968C207.67 306.642 208.133 308.477 208.19 310.347C208.56 314.873 207.756 319.418 205.855 323.542C205.855 323.648 205.59 323.542 205.626 323.542C207.73 315.477 209.517 305.643 201.452 300.301C194.571 295.685 185.887 295.278 178.105 293.704Z" fill="#263238"/>
<path d="M204.158 321.648C208.986 322.197 221.65 331.182 223.878 340.308C226.107 349.434 218.891 363.088 216.556 364.096C214.221 365.104 203.432 356.491 199.86 350.106C197.472 345.826 199.223 340.785 200.213 335.762C201.558 328.369 203.326 321.578 204.158 321.648Z" fill="#263238"/>
<path d="M196.871 348.992C195.297 339.689 200.408 330.368 203.486 321.896C203.486 321.808 203.663 321.896 203.645 321.896C202.018 330.014 197.26 337.354 197.242 345.809C197.132 348.288 197.621 350.758 198.667 353.009C199.714 355.259 201.288 357.224 203.256 358.737C206.882 361.355 211.409 362.505 215.637 363.92C215.919 364.008 215.743 364.415 215.46 364.326C207.076 361.78 198.481 358.614 196.871 348.992Z" fill="#263238"/>
<path d="M205.13 322.498C205.086 322.472 205.052 322.431 205.036 322.383C205.019 322.334 205.021 322.281 205.04 322.234C205.06 322.187 205.096 322.148 205.141 322.125C205.187 322.102 205.24 322.096 205.289 322.109C212.187 325.257 220.5 329.855 224.267 336.735C228.353 344.199 224.497 352.123 221.066 358.967C221.066 358.967 220.889 358.967 220.924 358.967C224.302 352.034 227.857 343.439 223.241 336.187C219.262 329.873 211.639 325.575 205.13 322.498Z" fill="#263238"/>
<path d="M215.901 363.867C213.724 365.638 211.932 367.834 210.633 370.322C209.334 372.809 208.557 375.536 208.349 378.334C207.641 389.512 203.273 387.761 191.564 391.9C181.66 395.437 180.652 406.987 186.63 412.045C186.63 412.045 182.792 405.359 189.283 401.238C197.029 396.304 216.609 403.007 224.762 390.503C235.303 374.337 215.901 363.867 215.901 363.867Z" fill="#263238"/>
<path d="M217.9 365.017C217.9 365.017 217.759 365.017 217.9 365.123C222.322 368.661 226.956 372.198 228.707 377.893C230.581 383.995 227.999 390.557 223.489 394.819C218.431 399.577 212.347 398.162 206.103 397.596C201.624 396.889 197.037 397.396 192.821 399.064C192.697 399.064 192.821 399.347 192.927 399.294C199.771 396.959 206.386 398.392 213.372 398.816C215.974 399.029 218.583 398.505 220.901 397.303C223.219 396.102 225.152 394.273 226.478 392.025C233.394 381.589 227.38 371.101 217.9 365.017Z" fill="#263238"/>
<path d="M182.262 288.557C182.591 288.203 183.041 287.985 183.523 287.946C184.005 287.908 184.484 288.053 184.865 288.351C185.246 288.649 185.5 289.08 185.578 289.557C185.656 290.034 185.552 290.523 185.287 290.927C183.783 292.908 180.759 290.538 182.262 288.557Z" fill="#495EE9"/>
<path d="M180.829 291.829C181.158 291.474 181.608 291.256 182.09 291.218C182.572 291.18 183.051 291.324 183.432 291.622C183.812 291.921 184.067 292.351 184.145 292.828C184.223 293.306 184.119 293.795 183.853 294.199C182.35 296.162 179.396 293.81 180.829 291.829Z" fill="#495EE9"/>
<path d="M178.831 294.836C179.16 294.482 179.61 294.264 180.092 294.225C180.574 294.187 181.053 294.331 181.433 294.63C181.814 294.928 182.069 295.358 182.147 295.836C182.225 296.313 182.121 296.802 181.855 297.206C181.526 297.561 181.076 297.779 180.594 297.817C180.112 297.855 179.633 297.711 179.252 297.413C178.872 297.114 178.617 296.684 178.539 296.207C178.461 295.73 178.565 295.24 178.831 294.836Z" fill="#495EE9"/>
<path d="M176.513 297.471C176.842 297.116 177.292 296.898 177.774 296.86C178.256 296.822 178.735 296.966 179.116 297.264C179.496 297.563 179.751 297.993 179.829 298.47C179.907 298.948 179.803 299.437 179.538 299.841C178.034 301.822 175.01 299.452 176.513 297.471Z" fill="#495EE9"/>
<path d="M173.72 299.7C175.223 297.719 178.247 300.089 176.744 302.07C176.415 302.424 175.965 302.642 175.483 302.68C175.001 302.719 174.522 302.574 174.141 302.276C173.761 301.978 173.506 301.547 173.428 301.07C173.35 300.593 173.454 300.104 173.72 299.7Z" fill="#495EE9"/>
<path d="M170.677 301.469C171.006 301.114 171.456 300.896 171.938 300.858C172.42 300.819 172.899 300.964 173.28 301.262C173.66 301.56 173.915 301.991 173.993 302.468C174.071 302.945 173.967 303.434 173.701 303.839C172.198 305.713 169.191 303.343 170.677 301.469Z" fill="#495EE9"/>
<path d="M167.794 337.018C159.499 347.241 115.088 379.466 77.5924 378.829C64.8581 378.635 29.4849 324.284 22.9408 303.626C18.2539 288.787 49.7537 281.288 58.6677 283.428C69.7749 286.116 91.4233 332.72 95.7035 332.95C108.438 333.835 130.298 326.176 157.129 323.453C170.942 322.126 174.197 329.165 167.794 337.018Z" fill="#AD6359"/>
<path d="M24.1963 307.04C21.8263 301.875 10.7014 273.17 9.79935 265.794C8.89734 258.419 7.85388 236.948 13.4428 235.727C19.0318 234.507 19.8277 240.733 19.8277 240.733C19.8277 240.733 20.8181 231.589 26.5663 230.828C32.3144 230.067 33.2518 239.848 33.2518 239.848C33.2518 239.848 35.0205 230.545 40.7333 230.191C46.446 229.838 45.8093 239.83 45.8093 239.83C45.8093 239.83 46.9589 231.253 51.8404 232.968C57.7301 235.037 53.8037 250.655 55.3778 258.684C55.7492 260.453 65.4237 295.366 65.4237 295.366L24.1963 307.04Z" fill="#AD6359"/>
<path d="M45.8447 238.929C42.9972 250.372 43.7224 255.89 47.3658 266.927C47.3658 267.139 47.1359 267.298 47.0474 267.068C42.4843 256.598 40.5742 249.824 45.2788 238.77C45.5264 238.222 45.9862 238.381 45.8447 238.929Z" fill="#263238"/>
<path d="M33.4824 238.893C31.5723 251.044 32.3151 257.022 35.2511 268.872C35.2511 269.031 35.0212 269.119 34.9681 268.96C31.077 257.588 29.3261 250.778 32.8457 238.893C33.0226 238.345 33.5709 238.327 33.4824 238.893Z" fill="#263238"/>
<path d="M20.0047 241.335C18.9966 253.255 19.5272 259.835 23.8781 270.96C23.8911 271.011 23.886 271.066 23.8634 271.114C23.8409 271.162 23.8024 271.201 23.7544 271.224C23.7065 271.247 23.652 271.252 23.6004 271.24C23.5488 271.227 23.5031 271.197 23.4712 271.154C17.9353 260.242 17.2102 252.017 19.6333 241.352C19.8102 240.556 20.0754 240.521 20.0047 241.335Z" fill="#263238"/>
<path d="M73.2766 300.708C73.2766 300.708 74.9214 286.01 74.2139 279.395C73.5065 272.78 61.8333 249.08 56.5273 251.309C49.7357 254.192 53.7859 269.208 56.7396 276.3C56.7396 276.3 41.0162 282.968 41.5998 294.376C42.1835 305.784 73.2766 300.708 73.2766 300.708Z" fill="#AD6359"/>
<path d="M54.9711 252.725C50.6733 259.799 55.148 268.873 57.5003 275.965C57.5403 276.069 57.5545 276.181 57.5418 276.291C57.529 276.402 57.4897 276.508 57.4271 276.6C57.3646 276.692 57.2806 276.768 57.1825 276.82C57.0844 276.873 56.975 276.901 56.8636 276.902C50.4611 280.139 42.3606 286.559 41.2994 294.058C41.2878 294.094 41.2653 294.124 41.2351 294.146C41.2049 294.168 41.1687 294.18 41.1314 294.18C41.0942 294.18 41.0578 294.168 41.0277 294.146C40.9975 294.124 40.975 294.094 40.9634 294.058C40.9634 285.852 48.4448 278.901 55.6786 275.806C53.1671 268.572 49.0815 259.286 54.9181 252.689C54.9358 252.636 55.0065 252.672 54.9711 252.725Z" fill="#263238"/>
<path d="M114.716 329.413L130.174 365.14C130.174 365.14 153.556 354.015 167.776 339.636C181.996 325.256 166.184 320.428 152.424 322.515C138.664 324.602 114.716 329.413 114.716 329.413Z" fill="#EBEBEB"/>
<path d="M167.776 339.707C153.627 354.086 130.174 365.211 130.174 365.211L125.47 354.334L172.569 327.026C174.303 329.891 173.347 334.065 167.776 339.707Z" fill="#C7C7C7"/>
<path d="M136.011 360.188C130.938 350.229 126.478 339.969 122.657 329.466C122.657 329.342 122.817 329.254 122.87 329.466C123.913 332.225 131.271 347.436 136.241 360.17C136.312 360.258 136.082 360.329 136.011 360.188Z" fill="#263238"/>
<path d="M132.35 400.089L126.001 448.515H227.363C227.363 448.515 213.956 357.694 192.308 329.767C181.484 315.812 166.981 316.184 156.722 326.849C154.476 329.166 131.837 361.515 127.84 374.868C124.356 386.7 132.35 400.089 132.35 400.089Z" fill="#EBEBEB"/>
<path d="M161.851 331.73L155.449 348.904C153.338 354.635 151.31 360.383 149.365 366.149C147.596 371.95 145.385 377.751 146.252 383.658C147.013 389.612 148.968 395.351 152 400.531L152.142 400.779V401.027C151.257 408.72 150.214 416.414 149.276 424.019C148.339 431.624 147.26 439.389 146.163 447.012C146.824 439.277 147.525 431.56 148.268 423.86C149.046 416.149 149.754 408.437 150.603 400.744L150.709 401.221C147.485 395.87 145.384 389.919 144.536 383.729C144.169 380.591 144.391 377.412 145.191 374.355C145.969 371.348 146.959 368.43 147.897 365.512C149.86 359.693 152.177 354.033 154.494 348.374C156.811 342.714 159.269 337.284 161.851 331.73Z" fill="#263238"/>
<path d="M147.702 354.104C147.627 354.485 147.7 354.881 147.907 355.21C148.115 355.539 148.44 355.776 148.816 355.873C149.003 355.9 149.193 355.889 149.375 355.841C149.557 355.793 149.728 355.709 149.876 355.593C150.025 355.477 150.149 355.333 150.24 355.168C150.332 355.003 150.389 354.822 150.408 354.635C150.488 354.253 150.417 353.855 150.209 353.525C150.001 353.195 149.673 352.959 149.294 352.866C149.107 352.836 148.916 352.845 148.733 352.892C148.55 352.939 148.378 353.023 148.229 353.139C148.08 353.255 147.956 353.401 147.865 353.567C147.775 353.733 147.719 353.916 147.702 354.104Z" fill="#263238"/>
<path d="M141.565 370.818C141.485 371.2 141.556 371.597 141.764 371.927C141.972 372.257 142.3 372.494 142.679 372.586C142.863 372.614 143.051 372.603 143.231 372.556C143.411 372.509 143.579 372.426 143.726 372.312C143.874 372.198 143.996 372.055 144.087 371.893C144.177 371.73 144.234 371.551 144.253 371.366C144.333 370.984 144.262 370.586 144.054 370.256C143.846 369.926 143.518 369.69 143.139 369.597C142.955 369.57 142.767 369.58 142.587 369.628C142.407 369.675 142.239 369.758 142.092 369.872C141.944 369.986 141.822 370.128 141.732 370.291C141.641 370.454 141.584 370.633 141.565 370.818Z" fill="#263238"/>
<path d="M140.787 387.867C140.707 388.249 140.778 388.647 140.986 388.977C141.194 389.307 141.522 389.543 141.901 389.636C142.086 389.663 142.275 389.653 142.456 389.606C142.637 389.559 142.807 389.476 142.955 389.362C143.104 389.249 143.228 389.106 143.32 388.944C143.412 388.781 143.471 388.601 143.493 388.415C143.568 388.034 143.495 387.638 143.288 387.309C143.081 386.98 142.755 386.743 142.379 386.647C142.194 386.619 142.005 386.63 141.824 386.677C141.643 386.724 141.473 386.806 141.325 386.92C141.176 387.034 141.052 387.176 140.96 387.339C140.867 387.502 140.809 387.681 140.787 387.867Z" fill="#263238"/>
<path d="M145.526 402C145.446 402.381 145.518 402.779 145.726 403.109C145.934 403.439 146.262 403.676 146.641 403.768C146.826 403.795 147.014 403.785 147.196 403.738C147.377 403.691 147.546 403.609 147.695 403.495C147.843 403.381 147.967 403.238 148.06 403.076C148.152 402.913 148.211 402.734 148.233 402.548C148.308 402.166 148.235 401.771 148.027 401.442C147.82 401.113 147.495 400.876 147.118 400.779C146.933 400.752 146.745 400.762 146.564 400.809C146.382 400.856 146.213 400.939 146.064 401.053C145.916 401.166 145.792 401.309 145.699 401.471C145.607 401.634 145.548 401.814 145.526 402Z" fill="#263238"/>
<path d="M143.687 417.404C143.611 417.785 143.685 418.181 143.892 418.51C144.099 418.839 144.425 419.076 144.801 419.173C144.987 419.2 145.176 419.189 145.357 419.141C145.538 419.093 145.707 419.008 145.854 418.892C146.002 418.776 146.124 418.632 146.213 418.467C146.303 418.302 146.358 418.121 146.375 417.935C146.451 417.553 146.377 417.158 146.17 416.829C145.963 416.5 145.638 416.263 145.261 416.166C145.076 416.139 144.887 416.15 144.706 416.198C144.524 416.246 144.355 416.331 144.208 416.447C144.06 416.562 143.938 416.707 143.849 416.872C143.759 417.036 143.704 417.217 143.687 417.404Z" fill="#263238"/>
<path d="M142.007 432.614C141.931 432.996 142.005 433.391 142.212 433.72C142.419 434.049 142.744 434.286 143.121 434.383C143.307 434.41 143.497 434.399 143.68 434.351C143.862 434.303 144.032 434.219 144.181 434.103C144.33 433.988 144.453 433.843 144.545 433.678C144.636 433.514 144.693 433.332 144.713 433.145C144.792 432.761 144.718 432.361 144.507 432.03C144.295 431.7 143.963 431.465 143.581 431.376C143.395 431.346 143.205 431.355 143.023 431.402C142.841 431.45 142.67 431.534 142.523 431.65C142.375 431.767 142.252 431.912 142.164 432.078C142.075 432.244 142.021 432.427 142.007 432.614Z" fill="#263238"/>
<path d="M162.311 501.557C167.422 505.094 176.018 489.742 178.936 486.47C181.854 483.198 183.128 483.304 182.951 485.798L189.601 459.41C186.152 462.08 178.848 467.829 174.957 471.613C169.739 476.672 157.199 498.09 162.311 501.557Z" fill="#AD6359"/>
<path d="M200.62 333.693C222.269 351.15 249.559 381.854 255.13 401.698C259.41 417.015 237.868 470.234 231.448 482.65C228.653 488.062 191.582 471.596 189.955 465.282C188.328 458.967 214.168 413.141 214.416 408.278C214.663 403.414 197.773 371.295 186.259 349.576C172.198 323.258 182.12 318.854 200.62 333.693Z" fill="#AD6359"/>
<path d="M165.954 516.715C169.368 520.429 176.283 515.919 176.283 515.919C176.283 515.919 170.128 523.524 174.939 526.531C179.75 529.537 186.312 522.993 186.312 522.993C186.312 522.993 181.006 530.28 186.046 532.862C191.087 535.445 197.525 529.803 197.525 529.803C197.525 529.803 197.171 532.597 201.54 532.845C207.801 533.198 216.733 523.046 220.146 516.644C223.56 510.241 231.306 484.26 232.438 480.262L191.494 458.013C191.494 458.013 190.769 458.543 189.601 459.463L182.934 485.798C182.827 487.443 178.14 497.578 176.443 500.496C172.622 507.058 162.116 512.54 165.954 516.715Z" fill="#AD6359"/>
<path d="M176.496 515.476C185.675 508.525 188.487 503.909 192.413 493.297C192.413 493.085 192.82 493.155 192.75 493.385C189.796 504.121 187.108 510.435 176.743 515.953C176.301 516.289 176.053 515.883 176.496 515.476Z" fill="#263238"/>
<path d="M185.852 523.152C194.695 515.087 197.844 510.099 202.849 499.293C202.849 499.134 203.185 499.293 203.114 499.399C199.117 510.418 196.287 516.643 186.33 523.524C185.887 523.842 185.445 523.506 185.852 523.152Z" fill="#263238"/>
<path d="M197.561 529.626C205.608 521.207 209.234 515.866 212.736 504.758C212.75 504.702 212.786 504.654 212.836 504.624C212.886 504.594 212.945 504.585 213.002 504.599C213.058 504.613 213.106 504.649 213.136 504.699C213.166 504.749 213.175 504.808 213.161 504.865C210.685 516.538 206.21 523.223 197.844 529.838C197.26 530.263 197.084 530.121 197.561 529.626Z" fill="#263238"/>
<path d="M196.464 381.465L227.716 358.065C227.716 358.065 211.48 337.903 194.2 327.397C176.92 316.891 175.859 333.446 181.165 346.357C186.471 359.268 196.464 381.465 196.464 381.465Z" fill="#EBEBEB"/>
<path d="M221.473 353.627C212.955 360.864 204.007 367.58 194.678 373.736C194.572 373.736 194.448 373.63 194.554 373.542C197.012 371.879 210.1 361.161 221.349 353.415C221.473 353.326 221.597 353.521 221.473 353.627Z" fill="#263238"/>
<path d="M190.963 368.236C189.071 363.973 186.471 357.765 184.313 353.609C184.313 353.609 184.189 353.609 184.207 353.609C185.056 356.032 185.976 358.455 187.019 360.843C186.949 360.715 186.872 360.591 186.789 360.471C186.011 359.357 185.198 358.26 184.331 357.199C184.985 358.402 185.693 359.587 186.453 360.737C186.931 361.462 187.444 362.152 187.957 362.841C188.505 364.097 189.725 367.21 190.309 368.466C191.229 370.57 195.721 382.42 195.916 382.279C197.012 381.559 198.063 380.774 199.064 379.926C199.223 379.803 199.064 379.52 198.834 379.644C198.268 380.121 196.853 381.058 196.623 381.235C195.615 379.095 194.854 376.831 193.846 374.638C192.838 372.445 191.936 370.447 190.963 368.236Z" fill="#263238"/>
<path d="M177.822 323.099C177.291 324.868 167.971 336.258 159.676 335.48C156.969 335.197 157.818 320.376 157.818 320.376L157.624 319.279L155.006 303.75L173.648 293.138L176.336 291.759C176.336 291.759 176.761 296.057 177.256 301.398C177.256 301.646 177.256 301.893 177.256 302.159C177.256 302.424 177.256 302.742 177.344 303.025C177.433 303.839 177.504 304.652 177.574 305.466C177.645 306.279 177.68 306.686 177.716 307.341C177.751 307.995 177.716 308.632 177.84 309.286C178.144 313.886 178.139 318.501 177.822 323.099Z" fill="#AD6359"/>
<path d="M177.256 301.345C175.466 305.556 172.784 309.33 169.395 312.405C166.006 315.48 161.99 317.783 157.624 319.155L155.006 303.626L173.648 293.014L176.336 291.635C176.336 291.635 176.761 296.003 177.256 301.345Z" fill="#263238"/>
<path d="M135.569 276.371C129.945 303.414 145.526 309.834 151.345 311.036C156.651 312.115 174.815 315.175 183.181 288.84C191.547 262.504 180.758 251.362 168.767 248.161C156.775 244.959 141.176 249.31 135.569 276.371Z" fill="#AD6359"/>
<path d="M144.695 269.986C145.332 270.021 145.969 270.021 146.605 269.986C147.279 270.047 147.954 269.892 148.533 269.544C148.691 269.395 148.796 269.198 148.831 268.984C148.866 268.77 148.83 268.55 148.728 268.359C148.468 268.009 148.12 267.735 147.719 267.564C147.318 267.393 146.879 267.331 146.446 267.386C145.556 267.365 144.691 267.681 144.023 268.27C143.9 268.414 143.818 268.589 143.787 268.775C143.755 268.962 143.775 269.154 143.844 269.33C143.913 269.506 144.029 269.661 144.179 269.776C144.329 269.892 144.507 269.964 144.695 269.986Z" fill="#263238"/>
<path d="M163.284 274.143C162.665 273.948 162.117 273.683 161.516 273.435C160.857 273.269 160.269 272.897 159.835 272.374C159.733 272.181 159.698 271.96 159.736 271.745C159.775 271.53 159.884 271.334 160.048 271.189C160.406 270.947 160.823 270.805 161.255 270.777C161.687 270.749 162.119 270.836 162.506 271.03C163.353 271.302 164.067 271.883 164.505 272.657C164.592 272.839 164.625 273.042 164.601 273.243C164.576 273.443 164.495 273.632 164.367 273.788C164.239 273.944 164.069 274.06 163.877 274.123C163.686 274.186 163.48 274.193 163.284 274.143Z" fill="#263238"/>
<path d="M158.508 279.997C158.508 279.997 158.632 280.103 158.614 280.174C158.19 281.943 158.03 284.189 159.587 285.126C159.587 285.126 159.587 285.25 159.587 285.232C157.571 284.543 157.818 281.66 158.508 279.997Z" fill="#263238"/>
<path d="M160.525 278.476C163.532 278.812 162.612 284.826 159.835 284.49C157.058 284.154 157.996 278.087 160.525 278.476Z" fill="#263238"/>
<path d="M161.71 278.883C162.17 279.289 162.594 279.979 163.231 280.138C163.867 280.297 164.593 279.767 165.159 279.236C165.159 279.236 165.265 279.236 165.247 279.325C165.088 280.474 164.469 281.589 163.213 281.571C161.957 281.553 161.444 280.421 161.303 279.219C161.232 278.989 161.462 278.706 161.71 278.883Z" fill="#263238"/>
<path d="M147.137 277.397C147.137 277.308 146.977 277.397 146.977 277.538C146.765 279.307 146.199 281.518 144.431 281.889V281.995C146.535 282.013 147.243 279.201 147.137 277.397Z" fill="#263238"/>
<path d="M145.792 275.204C142.838 274.55 141.724 280.51 144.465 281.129C147.207 281.748 148.233 275.752 145.792 275.204Z" fill="#263238"/>
<path d="M144.448 275.364C143.917 275.593 143.333 276.089 142.767 276.018C142.201 275.947 141.742 275.204 141.441 274.515C141.441 274.515 141.352 274.515 141.335 274.515C141.087 275.664 141.246 276.92 142.307 277.344C143.369 277.769 144.182 276.885 144.66 275.788C144.748 275.629 144.66 275.275 144.448 275.364Z" fill="#263238"/>
<path d="M147.56 286.17C147.56 286.17 146.711 288.876 146.499 290.184C146.499 290.308 146.782 290.414 147.224 290.52C148.313 290.912 149.488 290.996 150.621 290.762C151.754 290.528 152.8 289.985 153.645 289.194C153.751 289.088 153.645 288.929 153.485 288.982C151.631 289.848 149.546 290.09 147.543 289.672C147.543 289.3 149.134 285.091 148.922 285.038C147.893 284.96 146.858 285.02 145.845 285.215C147.437 279.519 149.913 274.125 151.416 268.43C151.432 268.385 151.43 268.336 151.411 268.293C151.391 268.25 151.354 268.216 151.31 268.2C151.265 268.184 151.216 268.186 151.173 268.205C151.13 268.225 151.096 268.262 151.08 268.306C148.238 274.002 145.975 279.969 144.324 286.117C144.218 286.842 147.065 286.293 147.56 286.17Z" fill="#263238"/>
<path d="M156.156 251.645C155.345 253.918 155.228 256.38 155.82 258.72C158.155 265.105 165.672 264.203 167.953 266.855C170.235 269.508 168.82 273.93 170.73 276.424C173.401 279.837 177.539 279.006 177.805 281.164C178.07 283.322 178.848 290.184 181.466 291.298C184.083 292.413 200.673 248.851 165.371 246.94C165.371 246.94 160.737 244.517 152.884 247.559C144.236 250.938 139.336 264.185 139.336 264.185C139.336 264.185 139.531 264.008 140.84 263.071C142.608 261.726 143.457 260.418 144.801 259.533C146.906 258.207 147.914 258.879 150.107 257.588C152.47 255.993 154.52 253.979 156.156 251.645Z" fill="#263238"/>
<path d="M156.881 249.753C156.152 251.451 155.635 253.234 155.343 255.059C154.934 256.817 155.02 258.653 155.59 260.365C156.36 261.96 157.688 263.219 159.322 263.902C160.932 264.68 162.859 265.034 164.504 265.918C165.395 266.378 166.146 267.068 166.68 267.917C167.128 268.792 167.393 269.749 167.458 270.729C167.485 272.513 167.999 274.256 168.944 275.77C169.477 276.48 170.158 277.066 170.939 277.488C171.721 277.909 172.585 278.156 173.471 278.211C175.317 278.083 177.169 278.355 178.901 279.007C177.132 278.501 175.275 278.374 173.454 278.635C172.487 278.615 171.537 278.386 170.667 277.965C169.797 277.544 169.028 276.94 168.413 276.194C167.328 274.631 166.714 272.79 166.644 270.888C166.567 270.02 166.327 269.174 165.937 268.395C165.464 267.688 164.81 267.12 164.044 266.75C162.506 265.918 160.649 265.512 158.951 264.68C158.081 264.263 157.277 263.72 156.563 263.071C155.825 262.424 155.26 261.603 154.918 260.683C154.397 258.845 154.397 256.897 154.918 255.059C155.355 253.217 156.014 251.435 156.881 249.753Z" fill="#263238"/>
<path d="M156.05 251.292C155.54 252.942 154.814 254.518 153.893 255.979C152.966 257.517 151.606 258.747 149.984 259.516C149.172 259.833 148.33 260.069 147.472 260.224C146.707 260.397 146.004 260.776 145.438 261.32C144.914 262.02 144.321 262.665 143.67 263.248C142.976 263.79 142.164 264.16 141.3 264.327C142.079 264.011 142.784 263.535 143.369 262.93C143.93 262.298 144.433 261.617 144.873 260.896C145.468 260.175 146.281 259.666 147.189 259.446C148.005 259.275 148.804 259.032 149.577 258.72C151.054 258.005 152.321 256.921 153.256 255.572C154.286 254.212 155.219 252.782 156.05 251.292Z" fill="#263238"/>
<path d="M175.947 287.461C175.947 287.461 183.216 279.838 186.754 282.544C190.291 285.251 183.942 296.941 179.148 297.95C178.541 298.119 177.905 298.164 177.28 298.082C176.655 298 176.052 297.793 175.509 297.472C174.966 297.152 174.493 296.725 174.118 296.217C173.744 295.71 173.475 295.132 173.33 294.518L175.947 287.461Z" fill="#AD6359"/>
<path d="M184.844 285.851C184.844 285.851 184.844 285.957 184.844 285.975C181.448 286.788 179.326 289.512 177.769 292.36C178.002 292.07 178.295 291.834 178.629 291.668C178.962 291.503 179.327 291.412 179.699 291.402C180.071 291.392 180.44 291.463 180.782 291.61C181.124 291.757 181.43 291.977 181.678 292.254C181.766 292.254 181.678 292.43 181.572 292.395C181.039 292.131 180.437 292.04 179.851 292.135C179.264 292.23 178.722 292.507 178.3 292.926C177.584 293.618 176.95 294.39 176.407 295.225C176.213 295.49 175.735 295.225 175.894 294.942C176.407 290.856 180.422 285.55 184.844 285.851Z" fill="#263238"/>
<path d="M157.607 321.543L161.516 334.136L177.929 319.986L181.82 325.292C181.82 325.292 165.018 348.603 165 347.489L160.826 336.576L152.991 343.297L155.06 324.992L157.607 321.543Z" fill="#EBEBEB"/>
<path d="M153.503 334.118C153.946 331.111 154.299 328.069 154.883 325.08C154.883 324.974 155.078 324.939 155.095 325.08C155.467 328.051 153.698 339.565 153.486 342.342C153.822 342.059 160.737 336.453 160.79 336.559C161.745 338.327 164.823 346.269 165.017 346.994C167.67 343.28 177.805 329.856 180.935 326.389C181.024 326.3 181.183 326.389 181.112 326.513C178.707 330.457 165.194 348.568 165.088 348.497C163.442 344.724 161.99 340.869 160.737 336.948C159.535 338.204 152.495 344.588 152.513 344.129C152.665 340.776 152.996 337.435 153.503 334.118Z" fill="#263238"/>
<path d="M492.077 91.6528H263.23V320.5H492.077V91.6528Z" fill="#DBDBDB"/>
<path d="M360.807 33.6582V187.832H514.982V33.6582H360.807ZM506.598 179.431H369.173V42.024H506.598V179.431Z" fill="#263238"/>
<path d="M338.911 227.627L351.292 228.494C355.231 221.675 356.967 213.805 356.262 205.961C356.12 204.193 359.888 214.628 357.553 228.954C370.623 229.856 388.416 231.094 403.945 232.031C404.529 225.965 405.342 220.376 405.342 220.376C405.656 224.383 406.325 228.355 407.341 232.244C409.463 232.385 411.55 232.491 413.549 232.597C413.85 223.959 414.629 215.344 415.883 206.793C416.594 215.85 418.786 224.729 422.374 233.075C432.261 233.57 438.752 233.712 438.292 233.216C424.143 215.406 435.533 206.032 431.961 190.769C427.698 172.463 412.24 168.873 413.319 155.395C414.186 144.359 416.467 124.391 402.707 119.456C399.125 115.602 394.492 112.882 389.38 111.634C384.269 110.386 378.903 110.664 373.948 112.435C351.504 119.863 358.685 154.334 356.863 161.197C354.263 170.995 349.382 174.267 345.349 185.409C341.317 196.552 346.11 204.493 346.34 212.258C346.57 220.022 336.435 227.486 338.911 227.627Z" fill="#263238"/>
<path d="M438.947 230.722C437.044 227.644 435.579 224.317 434.596 220.835C433.866 217.388 434.043 213.811 435.109 210.453C436.073 206.889 436.847 203.275 437.426 199.629C438.006 195.821 437.814 191.935 436.86 188.203C435.823 184.466 433.941 181.016 431.359 178.122C428.857 175.371 426.129 172.833 423.206 170.534C420.377 168.334 417.849 165.771 415.689 162.911C413.621 159.939 412.398 156.461 412.152 152.848C411.838 156.595 412.664 160.349 414.522 163.619C416.478 166.807 418.905 169.681 421.72 172.144C424.401 174.543 426.923 177.113 429.272 179.837C431.491 182.499 433.113 185.605 434.03 188.946C434.848 192.331 435.04 195.838 434.596 199.293C434.224 202.83 433.411 206.367 432.827 209.905C432.483 211.761 432.282 213.642 432.226 215.529C432.214 217.46 432.549 219.377 433.216 221.189C434.549 224.679 436.489 227.907 438.947 230.722Z" fill="#263238"/>
<path d="M360.843 124.603C359.133 128.792 357.945 133.176 357.305 137.655C356.545 142.095 355.997 146.499 355.537 151.044L354.741 157.712C354.517 159.865 354.085 161.992 353.45 164.061C351.954 168.138 349.738 171.912 346.906 175.204C345.486 177.024 344.192 178.938 343.032 180.934C341.868 182.986 340.942 185.163 340.273 187.425C339.678 189.673 339.246 191.96 338.982 194.27C338.693 196.619 338.693 198.995 338.982 201.345C339.283 203.662 339.831 205.872 340.273 208.03C340.722 210.178 340.971 212.363 341.016 214.557C340.98 216.754 340.422 218.912 339.389 220.852C338.356 222.793 336.877 224.46 335.073 225.717C337.114 224.61 338.851 223.017 340.131 221.08C341.411 219.143 342.195 216.921 342.413 214.61C342.555 212.307 342.466 209.996 342.148 207.712C341.847 205.448 341.387 203.255 341.246 201.097C340.993 196.766 341.538 192.426 342.855 188.292C343.511 186.256 344.376 184.294 345.438 182.438C346.56 180.558 347.806 178.756 349.169 177.043C350.585 175.235 351.901 173.352 353.113 171.401C354.351 169.386 355.332 167.223 356.032 164.963C356.652 162.714 357.055 160.41 357.235 158.083C357.464 155.819 357.606 153.573 357.747 151.327C358.048 146.835 358.278 142.36 358.703 137.903C358.95 133.407 359.668 128.949 360.843 124.603Z" fill="#263238"/>
<path d="M468.82 314.221C468.82 313.955 468.82 313.69 468.679 313.425C468.749 313.752 468.802 314.083 468.838 314.415C468.841 314.35 468.835 314.284 468.82 314.221Z" fill="#495EE9"/>
<path d="M424.532 322.056C424.677 322.152 424.831 322.235 424.992 322.303V322.179L424.515 322.073L424.532 322.056Z" fill="#495EE9"/>
<path d="M361.25 198.249C333.446 229.519 299.789 294.022 307.341 306.35C315.742 320.075 355.837 275.54 354.458 273.523C353.291 271.755 366.326 233.233 375.806 205.023C385.286 176.813 368.13 190.52 361.25 198.249Z" fill="#D3766A"/>
<path d="M361.25 198.249C333.446 229.519 299.789 294.022 307.341 306.35C315.742 320.075 355.837 275.54 354.458 273.523C353.291 271.755 366.326 233.233 375.806 205.023C385.286 176.813 368.13 190.52 361.25 198.249Z" fill="#455A64"/>
<path d="M364.999 237.39C362.275 245.615 359.799 253.308 357.924 259.499C353.627 259.693 341.051 259.003 327.999 246.446C331.925 239.495 336.17 232.509 340.556 225.823C347.068 232.464 355.735 236.566 364.999 237.39Z" fill="#EBEBEB"/>
<path d="M334.437 320.606L341.405 273.294C341.405 273.294 330.228 253.839 336.719 239.689C339.991 232.615 362.47 197.878 374.568 189.088C385.923 180.846 401.487 188.363 406.775 195.526C421.986 216.149 429.396 253.255 437.886 320.553L334.437 320.606Z" fill="#455A64"/>
<path d="M354.794 210.948C352.495 214.096 350.266 217.298 348.073 220.534C348.675 219.279 349.276 218.023 349.842 216.767C349.842 216.679 349.842 216.59 349.718 216.767C348.905 218.341 348.144 219.933 347.419 221.543C344.483 225.87 341.641 230.268 338.894 234.737C337.701 236.606 336.689 238.584 335.87 240.644C335.127 242.664 334.634 244.766 334.402 246.905C334.145 249.048 334.11 251.211 334.296 253.361C334.439 255.569 334.752 257.762 335.233 259.922C335.777 262.382 336.546 264.785 337.532 267.103C338.027 268.235 338.54 269.349 339.106 270.464C339.672 271.578 340.645 273.506 340.645 273.576C340.433 274.708 340.22 275.504 340.079 276.459C339.937 277.414 339.778 278.405 339.637 279.378C339.336 281.323 336.825 300.213 336.542 302.158C335.976 306.014 335.48 309.869 335.003 313.743C334.738 315.971 334.578 318.2 334.278 320.411C334.278 320.499 334.402 320.534 334.419 320.411C334.738 318.483 335.215 316.59 335.551 314.662C335.887 312.735 336.259 310.807 336.63 308.879C337.355 304.988 340.167 284.118 340.769 280.209C340.946 279.13 341.105 278.051 341.282 276.955C341.52 275.79 341.656 274.606 341.688 273.417C339.785 269.511 338.177 265.467 336.878 261.32C336.258 259.212 335.803 257.06 335.516 254.882C335.313 252.758 335.313 250.62 335.516 248.497C335.69 246.365 336.099 244.26 336.736 242.218C337.447 240.142 338.36 238.139 339.46 236.24C341.724 232.225 344.129 228.281 346.535 224.372C349.294 219.939 352.1 215.523 354.953 211.125C354.953 211.125 354.847 210.878 354.794 210.948Z" fill="#263238"/>
<path d="M307.341 306.35C314.415 315.458 332.509 316.325 377.822 322.763C384.083 323.665 402.282 281.111 395.632 279.82C387.266 278.175 354.422 273.647 351.982 273.63C331.377 273.382 302.512 300.177 307.341 306.35Z" fill="#D3766A"/>
<path d="M386.559 278.229C386.559 278.229 405.714 280.121 415.477 284.224C425.539 288.741 434.353 295.636 441.158 304.316C448.516 313.637 459.835 341.281 452.442 345.933C445.757 350.142 435.604 321.295 435.604 321.295C435.604 321.295 450.797 348.993 441.812 352.583C432.828 356.173 422.941 322.021 422.941 322.021C422.941 322.021 437.921 350.832 428.07 353.061C420.624 354.829 409.941 324.337 409.941 324.337C409.941 324.337 422.64 349.187 415.053 351.239C406.669 353.52 395.049 326.071 395.049 326.071C374.886 328.069 364.451 320.765 357.659 314.698C355.926 313.23 386.559 278.229 386.559 278.229Z" fill="#D3766A"/>
<path d="M430.864 311.391C432.774 314.575 434.72 317.794 436.329 321.136C437.939 324.479 439.442 327.893 440.733 331.377C442.526 335.89 443.784 340.597 444.483 345.402C442.608 336.966 437.019 324.904 435.392 321.543C433.765 318.183 432.35 314.787 430.74 311.444L430.864 311.391Z" fill="#263238"/>
<path d="M418.678 316.998C420.924 321.172 423.329 325.24 425.399 329.502C427.468 333.765 428.936 337.992 430.705 342.378C430.846 342.714 430.705 342.679 430.457 342.378C428.529 338.063 426.407 334.225 424.426 329.998C422.445 325.771 420.623 321.349 418.483 317.14C418.536 316.963 418.642 316.927 418.678 316.998Z" fill="#263238"/>
<path d="M407.341 319.916C410.973 326.235 413.937 332.915 416.184 339.848C416.308 340.184 416.025 340.114 415.884 339.76C413.072 333.092 410.931 327.821 407.164 320.057C407.076 319.933 407.27 319.792 407.341 319.916Z" fill="#263238"/>
<path d="M401.026 278.564L363.725 322.463C363.725 322.463 312.788 318.925 306.916 305.483C301.044 292.042 339.831 272.498 351.928 273.648C364.026 274.797 401.026 278.564 401.026 278.564Z" fill="#455A64"/>
<path d="M332.297 279.378C335.233 277.362 343.545 272.622 351.929 273.559V273.701C345.049 273.913 335.357 277.786 332.367 279.484C332.297 279.537 332.226 279.414 332.297 279.378Z" fill="#263238"/>
<path d="M355.837 314.875C370.499 299.346 383.552 280.793 386.063 277.733C386.169 277.591 385.922 277.414 385.816 277.556C383.516 280.704 366.36 300.283 355.572 314.698C355.448 314.857 355.695 315.016 355.837 314.875Z" fill="#263238"/>
<path d="M317.195 219.085L300.66 300.064L362.854 312.763L379.389 231.784L317.195 219.085Z" fill="#495EE9"/>
<path d="M364.126 224.293L334.656 218.244L332.821 227.184L362.291 233.233L364.126 224.293Z" fill="#EBEBEB"/>
<path d="M357.411 222.958L353.786 222.197L354.617 218.094L345.809 216.272L344.96 220.393L341.334 219.65L342.873 212.151L359.003 215.459L357.411 222.958Z" fill="#EBEBEB"/>
<path d="M414.221 205.395C444.182 243.51 455.484 312.081 438.858 317.387C423.665 322.268 361.179 306.633 342.555 300.301C337.089 298.444 353.98 255.943 359.834 257.853C366.909 260.241 405.537 269.403 406.297 269.421C407.907 269.421 399.311 227.291 395.685 208.172C390.485 181.571 402.972 191.069 414.221 205.395Z" fill="#D3766A"/>
<path d="M309.871 241.9C308.982 242.985 308.447 244.316 308.34 245.714C308.232 247.112 308.557 248.51 309.269 249.718C306.986 250.405 305.016 251.869 303.698 253.856C301.54 257.394 306.262 262.434 306.262 262.434C304.04 263.64 302.233 265.489 301.08 267.74C299.312 271.401 303.415 277.096 303.415 277.096C301.984 279.324 301.407 281.993 301.788 284.613C303.097 291.582 313.16 295.544 319.474 298.126C325.789 300.708 346.358 302.035 350.231 302.689L367.14 261.886C367.14 261.886 341.83 242.201 333.889 240.22C327.292 238.557 313.426 237.797 309.871 241.9Z" fill="#D3766A"/>
<path d="M309.817 249.188C317.351 249.188 324.443 251.522 331.66 253.397C331.819 253.397 331.66 253.68 331.66 253.645C324.585 251.699 317.05 251.204 309.834 249.541C309.787 249.544 309.741 249.527 309.707 249.496C309.672 249.464 309.651 249.42 309.649 249.373C309.646 249.326 309.663 249.28 309.694 249.246C309.726 249.211 309.77 249.19 309.817 249.188Z" fill="#263238"/>
<path d="M306.616 261.956C308.323 262.13 310 262.528 311.603 263.141C313.372 263.69 315.141 264.256 316.768 264.91C320.305 266.113 323.612 267.404 326.991 268.783C327.132 268.783 326.991 269.084 326.991 269.031C323.559 267.852 320.11 266.726 316.644 265.653C314.875 265.122 313.107 264.609 311.426 264.114C309.745 263.751 308.108 263.206 306.545 262.487C306.51 262.482 306.476 262.471 306.446 262.453C306.416 262.436 306.389 262.412 306.368 262.384C306.346 262.356 306.331 262.325 306.322 262.291C306.313 262.257 306.31 262.221 306.315 262.186C306.32 262.152 306.331 262.118 306.349 262.088C306.366 262.057 306.39 262.03 306.418 262.009C306.446 261.988 306.477 261.972 306.511 261.963C306.545 261.954 306.581 261.952 306.616 261.956Z" fill="#263238"/>
<path d="M303.556 277.114C305.1 277.303 306.601 277.752 307.995 278.441C309.534 279.024 311.108 279.59 312.664 280.209C315.777 281.324 318.908 282.456 322.056 283.464C322.083 283.474 322.106 283.492 322.123 283.516C322.139 283.539 322.148 283.567 322.148 283.596C322.148 283.625 322.139 283.653 322.123 283.677C322.106 283.701 322.083 283.719 322.056 283.729C318.855 282.703 315.618 281.73 312.417 280.687L307.712 279.113C306.23 278.783 304.821 278.184 303.556 277.344C303.541 277.344 303.526 277.341 303.512 277.335C303.498 277.33 303.485 277.321 303.474 277.311C303.464 277.3 303.455 277.287 303.45 277.273C303.444 277.259 303.441 277.244 303.441 277.229C303.441 277.214 303.444 277.199 303.45 277.185C303.455 277.171 303.464 277.159 303.474 277.148C303.485 277.137 303.498 277.129 303.512 277.123C303.526 277.117 303.541 277.114 303.556 277.114Z" fill="#263238"/>
<path d="M405.784 267.705C406.262 267.404 397.295 226.725 394.288 205.483C391.281 184.242 400.761 186.293 414.398 204.44C429.024 223.895 455.077 276.53 446.039 315.511C443.121 328.14 352.689 310.453 352.689 310.453L364.875 258.472C364.875 258.472 404.988 268.147 405.784 267.705Z" fill="#455A64"/>
<path d="M442.59 263.849C427.84 268.165 411.833 265.972 405.307 264.751C404.37 259.64 402.088 248.568 399.753 236.612C415.247 238.381 425.753 236.117 431.501 234.189C435.972 243.769 439.68 253.686 442.59 263.849Z" fill="#EBEBEB"/>
<path d="M364.468 305.112C369.969 287.001 372.993 267.157 373.771 263.726C373.771 263.567 373.542 263.531 373.524 263.726C372.94 267.122 366.997 289.442 364.185 305.095C364.15 305.236 364.415 305.272 364.468 305.112Z" fill="#263238"/>
<path d="M422.728 273.718C420.959 273.417 374.815 260.418 364.733 258.844C364.574 258.844 364.733 258.295 364.875 258.331C384.684 261.792 404.223 266.65 423.347 272.869C425.646 273.789 425.982 274.284 422.728 273.718Z" fill="#263238"/>
<path d="M405.289 268.112C405.289 268.112 402.247 252.441 401.752 251.468C401.257 250.496 399.983 248.232 399.488 247.188C398.48 245.084 397.613 242.926 396.693 240.786C396.693 240.609 396.888 240.485 396.959 240.662C397.967 242.714 399.134 244.695 400.319 246.658C400.903 247.613 401.487 248.586 402.088 249.523C402.088 249.523 399.24 234.312 398.834 231.624C398.834 231.43 399.01 231.359 399.081 231.624C399.948 234.33 405.997 264.946 406.828 268.342C406.31 268.303 405.796 268.226 405.289 268.112Z" fill="#263238"/>
<path d="M371.26 313.673C368.235 312.841 356.156 310.896 353.22 310.471C353.766 308.302 354.121 306.088 354.281 303.857C354.268 303.835 354.251 303.816 354.229 303.803C354.207 303.791 354.182 303.784 354.157 303.784C354.132 303.784 354.107 303.791 354.085 303.803C354.063 303.816 354.045 303.835 354.033 303.857C353.109 306.322 352.37 308.852 351.822 311.427C351.822 311.674 368.094 313.726 371.278 313.885C371.313 313.85 371.348 313.708 371.26 313.673Z" fill="#263238"/>
<path d="M367.209 192.926C367.209 192.926 368.412 204.882 378.334 206.739C388.256 208.597 406.774 195.579 406.774 195.579C404.229 192.491 401.042 189.993 397.436 188.258C393.829 186.523 389.888 185.594 385.887 185.533C372.958 185.516 367.209 192.926 367.209 192.926Z" fill="#D3766A"/>
<path d="M395.667 189.583C395.137 191.351 385.78 202.706 377.485 201.84C374.779 201.539 375.717 186.717 375.717 186.717L375.54 185.621L372.975 170.092L391.652 159.48L394.341 158.101C394.341 158.101 394.765 162.398 395.225 167.757C395.225 168.005 395.225 168.253 395.225 168.518C395.225 168.783 395.225 169.102 395.313 169.385C395.313 170.181 395.473 170.994 395.526 171.808C395.579 172.621 395.632 173.046 395.667 173.682L395.773 175.628C396.056 180.277 396.021 184.939 395.667 189.583Z" fill="#D3766A"/>
<path d="M395.173 167.828C393.376 172.043 390.685 175.817 387.286 178.889C383.887 181.961 379.862 184.258 375.487 185.621L372.923 170.092L391.6 159.48L394.288 158.101C394.288 158.101 394.73 162.469 395.173 167.828Z" fill="#263238"/>
<path d="M354.989 141.104C347.72 167.74 362.877 175.115 368.625 176.672C373.931 178.087 391.777 182.243 401.77 156.492C411.763 130.74 401.664 118.925 389.885 115.052C378.105 111.178 362.258 114.45 354.989 141.104Z" fill="#D3766A"/>
<path d="M364.592 135.887C365.246 135.887 365.848 135.887 366.502 135.887C367.168 135.997 367.852 135.885 368.448 135.568C368.621 135.436 368.744 135.247 368.796 135.035C368.847 134.822 368.824 134.599 368.731 134.401C368.498 134.036 368.172 133.741 367.786 133.545C367.4 133.349 366.969 133.26 366.537 133.287C365.647 133.199 364.756 133.451 364.044 133.994C363.877 134.125 363.752 134.302 363.687 134.504C363.622 134.706 363.618 134.922 363.677 135.126C363.736 135.33 363.855 135.511 364.018 135.647C364.181 135.782 364.381 135.866 364.592 135.887Z" fill="#263238"/>
<path d="M383.587 138.539C382.982 138.312 382.391 138.046 381.819 137.743C381.165 137.558 380.592 137.16 380.192 136.612C380.099 136.415 380.075 136.194 380.123 135.982C380.171 135.771 380.289 135.581 380.457 135.444C380.83 135.218 381.258 135.098 381.695 135.098C382.131 135.098 382.56 135.218 382.933 135.444C383.771 135.77 384.454 136.402 384.843 137.213C384.9 137.391 384.907 137.58 384.866 137.762C384.824 137.944 384.735 138.111 384.606 138.246C384.478 138.382 384.316 138.481 384.137 138.532C383.958 138.584 383.768 138.586 383.587 138.539Z" fill="#263238"/>
<path d="M377.486 147.064C377.486 147.064 377.592 147.188 377.486 147.259C376.973 149.028 376.708 151.239 378.211 152.247C378.211 152.247 378.211 152.37 378.211 152.335C376.319 151.557 376.725 148.692 377.486 147.064Z" fill="#263238"/>
<path d="M379.591 145.561C382.597 146.056 381.359 152.016 378.6 151.539C375.841 151.061 377.097 145.136 379.591 145.561Z" fill="#263238"/>
<path d="M380.705 146.109C381.147 146.551 381.537 147.259 382.156 147.453C382.775 147.648 383.535 147.153 384.136 146.658C384.136 146.658 384.243 146.658 384.136 146.746C383.907 147.896 383.234 148.975 381.979 148.886C380.723 148.798 380.21 147.63 380.21 146.428C380.281 146.215 380.528 145.932 380.705 146.109Z" fill="#263238"/>
<path d="M366.521 143.421C366.521 143.421 366.361 143.421 366.344 143.563C366.008 145.42 365.318 147.472 363.514 147.719V147.825C365.601 147.985 366.503 145.243 366.521 143.421Z" fill="#263238"/>
<path d="M365.3 141.157C362.382 140.29 360.878 146.18 363.531 146.976C366.184 147.772 367.741 141.882 365.3 141.157Z" fill="#263238"/>
<path d="M363.973 141.228C363.425 141.423 362.823 141.865 362.204 141.759C361.585 141.653 361.232 140.874 360.984 140.167C360.984 140.167 360.896 140.167 360.878 140.167C360.56 141.281 360.63 142.555 361.656 143.05C362.682 143.545 363.549 142.714 364.115 141.67C364.274 141.511 364.185 141.157 363.973 141.228Z" fill="#263238"/>
<path d="M372.781 161.001C372.268 161.355 371.738 161.886 371.013 161.833C370.329 161.708 369.679 161.443 369.102 161.055C369.102 161.055 368.979 161.055 368.996 161.055C369.204 161.462 369.517 161.806 369.903 162.052C370.288 162.297 370.733 162.435 371.189 162.452C371.591 162.418 371.974 162.265 372.289 162.013C372.604 161.761 372.837 161.421 372.958 161.037C372.994 161.001 372.87 160.948 372.781 161.001Z" fill="#263238"/>
<path d="M366.556 152.671C366.556 152.671 365.583 155.342 365.3 156.633C365.3 156.757 365.566 156.88 366.008 157.004C367.073 157.455 368.242 157.601 369.385 157.426C370.528 157.251 371.6 156.762 372.481 156.014C372.605 155.908 372.481 155.748 372.322 155.802C370.428 156.567 368.336 156.697 366.362 156.173C366.362 155.802 368.13 151.681 367.989 151.61C366.962 151.469 365.92 151.469 364.894 151.61C366.786 146.003 369.545 140.75 371.332 135.144C371.332 134.931 371.102 134.808 371.013 134.984C367.879 140.527 365.307 146.369 363.337 152.423C363.107 153.166 365.99 152.777 366.556 152.671Z" fill="#263238"/>
<path d="M366.52 156.598C367.013 157.778 367.798 158.812 368.802 159.604C369.367 160.019 370.047 160.248 370.747 160.259C372.268 160.259 372.657 158.95 372.693 157.765C372.708 157.135 372.649 156.506 372.516 155.89C370.642 156.752 368.543 157 366.52 156.598Z" fill="#263238"/>
<path d="M368.802 159.604C369.367 160.019 370.046 160.247 370.747 160.258C372.268 160.258 372.657 158.95 372.693 157.765C371.932 157.601 371.139 157.692 370.435 158.024C369.732 158.357 369.158 158.912 368.802 159.604Z" fill="#FF9CBD"/>
<path d="M400.283 156.05C397.436 155.041 392.183 144.925 395.968 130.899C395.968 130.899 393.439 143.74 393.863 145.844C394.288 147.949 390.927 140.149 393.863 128.794C389.588 130.323 385.114 131.229 380.581 131.483C374.85 131.483 371.596 130.457 371.331 129.962C371.065 129.467 379.59 129.254 382.402 127.415C382.402 127.415 366.378 129.944 359.71 128.565C358.95 128.405 362.487 112.647 374.461 108.95C386.435 105.254 400.354 116.944 403.467 122.321C403.467 122.321 408.296 124.479 411.638 133.517C414.981 142.555 403.343 157.128 400.283 156.05Z" fill="#263238"/>
<path d="M396.163 156.633C396.163 156.633 403.627 149.222 407.093 152.034C410.56 154.847 403.857 166.343 399.046 167.192C398.438 167.346 397.805 167.377 397.185 167.281C396.566 167.186 395.972 166.966 395.438 166.636C394.905 166.306 394.444 165.872 394.082 165.36C393.721 164.847 393.466 164.267 393.333 163.655L396.163 156.633Z" fill="#D3766A"/>
<path d="M405.094 155.289C405.094 155.289 405.094 155.395 405.094 155.412C401.698 156.12 399.488 158.755 397.772 161.585C398.013 161.299 398.313 161.068 398.652 160.91C398.991 160.752 399.361 160.671 399.735 160.671C400.109 160.671 400.479 160.752 400.818 160.91C401.157 161.068 401.458 161.299 401.698 161.585C401.698 161.585 401.698 161.762 401.575 161.727C401.05 161.447 400.452 161.338 399.862 161.414C399.273 161.49 398.722 161.748 398.285 162.151C397.562 162.832 396.91 163.585 396.339 164.397C396.127 164.663 395.65 164.397 395.826 164.114C396.516 159.976 400.673 154.9 405.094 155.289Z" fill="#263238"/>
<path d="M468.679 313.425C468.749 313.752 468.802 314.083 468.838 314.415C468.847 314.351 468.847 314.285 468.838 314.221C468.785 313.955 468.732 313.69 468.679 313.425Z" fill="#495EE9"/>
<path d="M468.679 313.425C468.749 313.752 468.802 314.083 468.838 314.415C468.847 314.351 468.847 314.285 468.838 314.221C468.785 313.955 468.732 313.69 468.679 313.425Z" fill="#495EE9"/>
<path d="M468.679 313.425C468.749 313.752 468.802 314.083 468.838 314.415C468.847 314.351 468.847 314.285 468.838 314.221C468.785 313.955 468.732 313.69 468.679 313.425Z" fill="#DBDBDB"/>
<path d="M-37.0001 17.8101V87.4599H32.7382V17.8101H-37.0001ZM-31.6941 82.26V23.063H27.4676V82.26H-31.6941Z" fill="#EBEBEB"/>
<path d="M249.151 0H12.5577V217.881H249.151V0Z" fill="#37474F"/>
<path d="M173.117 108.047C201.946 137.266 238.203 198.727 231.482 211.196C223.948 225.08 183.817 184.117 183.958 181.712C184.082 179.943 169.968 142.572 159.197 115.423C148.426 88.2738 165.989 100.814 173.117 108.047Z" fill="#F7A9A0"/>
<path d="M183.658 181.765C182.438 177.768 163.212 128.546 157.73 112.964C152.247 97.3826 157.323 92.5896 173.011 106.845C188.699 121.1 223.082 168.748 230.934 194.022C238.487 218.341 225.947 218.341 209.463 207.146C195.862 197.966 183.658 181.765 183.658 181.765Z" fill="#495EE9"/>
<path opacity="0.1" d="M170.287 108.454C169.912 110.639 168.973 112.687 167.563 114.397C167.741 113.308 168.069 112.248 168.536 111.249C168.993 110.244 169.582 109.304 170.287 108.454ZM217.828 176.158C217.348 177.153 217.021 178.214 216.855 179.307C217.576 178.465 218.171 177.524 218.624 176.512C219.091 175.512 219.418 174.453 219.597 173.364C218.871 174.201 218.274 175.143 217.828 176.158ZM200.831 150.283C200.354 151.285 200.026 152.352 199.859 153.449C200.575 152.598 201.171 151.651 201.627 150.637C202.099 149.639 202.426 148.579 202.6 147.488C201.883 148.333 201.288 149.274 200.831 150.283ZM183.145 143.792C182.15 143.312 181.089 142.984 179.997 142.819C181.706 144.229 183.755 145.168 185.939 145.543C185.107 144.832 184.178 144.242 183.18 143.792H183.145ZM199.063 169.95C198.061 169.473 196.994 169.145 195.897 168.978C196.748 169.694 197.694 170.29 198.709 170.746C199.707 171.218 200.767 171.546 201.857 171.719C201.023 171.005 200.095 170.41 199.098 169.95H199.063ZM186.116 125.15C185.121 124.671 184.06 124.343 182.968 124.177C183.81 124.898 184.751 125.493 185.762 125.946C186.758 126.423 187.819 126.751 188.911 126.919C188.079 126.201 187.15 125.606 186.151 125.15H186.116ZM176.247 160.081C176.622 161.121 177.139 162.103 177.786 163C177.57 160.791 176.784 158.676 175.504 156.862C175.618 157.965 175.88 159.048 176.282 160.081H176.247ZM209.551 191.245C209.922 192.286 210.44 193.269 211.09 194.163C210.874 191.954 210.088 189.84 208.808 188.026C208.911 189.131 209.173 190.215 209.586 191.245H209.551ZM187.124 185.939L187.708 186.629C188.673 186.273 189.583 185.785 190.414 185.179C189.295 185.289 188.199 185.564 187.16 185.992L187.124 185.939ZM226.583 204.545C227.624 204.175 228.607 203.656 229.501 203.007C228.398 203.098 227.314 203.349 226.282 203.749C225.238 204.113 224.254 204.632 223.364 205.288C224.475 205.208 225.57 204.976 226.618 204.598L226.583 204.545ZM167.386 132.402C166.665 132.668 165.967 132.994 165.299 133.375L165.458 133.817C166.214 133.683 166.954 133.476 167.669 133.198C168.719 132.834 169.709 132.316 170.605 131.659C169.512 131.778 168.441 132.046 167.421 132.455L167.386 132.402Z" fill="black"/>
<path d="M180.209 217.934H70.5525C70.5525 217.934 87.9738 131.977 129.997 94.7646C135.197 90.166 146.906 91.2272 154.564 95.0122C157.288 96.374 167.086 110.081 169.88 123.045C172.675 136.01 180.528 217.545 180.209 217.934Z" fill="#495EE9"/>
<path d="M170.906 128.405C171.772 131.306 172.48 134.295 173.063 137.249C173.055 137.131 173.055 137.013 173.063 136.895C173.063 135.126 173.063 133.481 173.293 131.784C173.293 131.784 173.453 131.677 173.453 131.784C173.677 133.49 173.724 135.214 173.594 136.93C173.594 137.726 173.506 138.54 173.435 139.353C173.665 140.698 173.877 142.06 174.036 143.404C174.372 145.951 175.221 155.484 175.292 157.376C175.292 157.765 174.85 157.836 174.744 157.376C174.231 155.466 172.869 145.632 172.427 143.103C171.572 138.204 170.981 133.262 170.658 128.299C170.711 128.299 170.87 128.299 170.906 128.405Z" fill="#263238"/>
<path opacity="0.1" d="M136.948 117.209C136.769 118.3 136.435 119.36 135.958 120.357C135.511 121.372 134.915 122.314 134.189 123.151C134.371 122.061 134.704 121.001 135.179 120.003C135.63 118.99 136.225 118.049 136.948 117.209ZM122.091 160.859C121.612 161.854 121.284 162.915 121.118 164.007C122.529 162.298 123.468 160.249 123.842 158.065C123.128 158.908 122.538 159.849 122.091 160.859ZM86.4881 176.476C86.0109 177.479 85.6832 178.545 85.5154 179.642C86.2319 178.798 86.8272 177.857 87.2841 176.848C87.7613 175.846 88.089 174.779 88.2568 173.682C87.5403 174.527 86.945 175.467 86.4881 176.476ZM112.664 204.474C112.185 205.469 111.857 206.53 111.692 207.623C112.402 206.773 112.997 205.834 113.46 204.828C113.922 203.82 114.249 202.756 114.433 201.662C113.71 202.509 113.114 203.456 112.664 204.474ZM158.349 150.389C157.879 151.394 157.552 152.459 157.376 153.555C158.099 152.708 158.695 151.761 159.145 150.742C159.624 149.748 159.952 148.686 160.117 147.594C159.407 148.443 158.812 149.383 158.349 150.389ZM172.746 180.085C172.268 181.087 171.941 182.153 171.773 183.25C172.489 182.406 173.085 181.465 173.542 180.456C174.019 179.454 174.347 178.387 174.514 177.29C173.802 178.138 173.208 179.078 172.746 180.085ZM137.903 201.485C137.442 202.493 137.115 203.558 136.93 204.651C137.653 203.805 138.249 202.857 138.699 201.839C139.177 200.842 139.51 199.782 139.689 198.691C138.967 199.535 138.366 200.476 137.903 201.485ZM104.528 143.597C104.054 144.595 103.72 145.655 103.538 146.745C104.264 145.908 104.861 144.966 105.307 143.951C105.784 142.954 106.118 141.894 106.297 140.803C105.575 141.643 104.979 142.584 104.528 143.597ZM145.951 133.834C144.956 133.354 143.894 133.026 142.802 132.861C143.644 133.582 144.585 134.177 145.597 134.63C146.596 135.099 147.655 135.427 148.745 135.603C147.903 134.882 146.962 134.287 145.951 133.834ZM152.866 169.101C151.871 168.621 150.81 168.294 149.718 168.128C150.564 168.843 151.504 169.438 152.512 169.897C153.51 170.369 154.57 170.696 155.66 170.87C154.823 170.143 153.881 169.547 152.866 169.101ZM88.416 206.473C87.4188 205.995 86.3588 205.662 85.2678 205.482C86.1053 206.209 87.0473 206.805 88.0622 207.251C89.0614 207.724 90.1207 208.057 91.2105 208.242C90.373 207.515 89.4309 206.919 88.416 206.473ZM153.998 213.548C152.999 213.078 151.939 212.751 150.85 212.575C151.692 213.295 152.633 213.891 153.644 214.343L154.316 214.644C154.9 214.644 155.466 214.644 156.085 214.75C155.427 214.303 154.728 213.918 153.998 213.601V213.548ZM113.053 177.856C112.055 177.384 110.995 177.057 109.905 176.883C110.743 177.61 111.685 178.206 112.7 178.652C113.697 179.127 114.757 179.454 115.848 179.625C114.998 178.929 114.058 178.352 113.053 177.909V177.856ZM145.951 102.564C144.953 102.087 143.893 101.753 142.802 101.574C143.645 102.293 144.586 102.889 145.597 103.342C146.599 103.804 147.657 104.131 148.745 104.315C147.903 103.614 146.961 103.042 145.951 102.617V102.564ZM153.025 118.924C153.393 119.967 153.911 120.95 154.564 121.843C154.465 120.741 154.215 119.657 153.821 118.624C153.447 117.584 152.929 116.601 152.282 115.705C152.383 116.828 152.645 117.93 153.06 118.977L153.025 118.924ZM170.553 200.548C170.916 201.592 171.435 202.576 172.091 203.466C171.875 201.257 171.089 199.142 169.81 197.329C169.902 198.432 170.152 199.516 170.553 200.548ZM123.524 139.476C123.902 140.514 124.419 141.496 125.063 142.394C124.977 141.292 124.732 140.208 124.337 139.175C123.96 138.137 123.442 137.155 122.799 136.257C122.865 137.354 123.079 138.437 123.435 139.476H123.524ZM137.072 175.38C137.439 176.423 137.957 177.406 138.611 178.298C138.517 177.195 138.266 176.112 137.868 175.079C137.493 174.04 136.975 173.057 136.329 172.161C136.379 173.258 136.588 174.342 136.948 175.38H137.072ZM74.2667 217.492C74.2579 217.639 74.2579 217.787 74.2667 217.934H74.5497L74.2667 217.492ZM105.112 217.35C104.742 216.303 104.224 215.315 103.573 214.414C103.663 215.518 103.913 216.602 104.316 217.633L104.422 217.934H105.307C105.112 217.739 105.112 217.545 105.112 217.35ZM98.8157 192.041C99.1902 193.08 99.7082 194.063 100.354 194.959C100.265 193.856 100.014 192.771 99.6116 191.74C99.2447 190.697 98.7262 189.714 98.0728 188.822C98.1384 189.92 98.3588 191.004 98.7273 192.041H98.8157ZM125.346 107.534C125.705 108.58 126.224 109.565 126.884 110.452C126.79 109.35 126.54 108.266 126.142 107.233C125.767 106.194 125.249 105.212 124.603 104.315C124.67 105.415 124.896 106.499 125.275 107.534H125.346ZM154.635 190.36C155.674 189.986 156.657 189.468 157.553 188.822C156.451 188.908 155.367 189.152 154.334 189.547C153.296 189.925 152.314 190.442 151.416 191.086C152.518 191 153.602 190.755 154.635 190.36ZM125.912 216.749C126.953 216.378 127.936 215.86 128.83 215.21C126.621 215.426 124.506 216.212 122.693 217.492C123.796 217.4 124.88 217.15 125.912 216.749ZM77.1143 192.854C77.1143 193.102 76.9551 193.349 76.8843 193.597C77.4128 193.338 77.9161 193.03 78.3877 192.677C77.9597 192.708 77.5343 192.767 77.1143 192.854ZM102.123 162.451C103.17 162.081 104.159 161.562 105.059 160.912C103.956 161.002 102.871 161.252 101.84 161.655C100.793 162.026 99.8045 162.544 98.9041 163.194C100.006 163.095 101.089 162.845 102.123 162.451ZM125.116 191.492C126.177 191.155 127.183 190.667 128.105 190.042C125.896 190.258 123.781 191.044 121.967 192.324C123.057 192.198 124.123 191.919 125.133 191.492H125.116ZM138.717 149.84C139.76 149.463 140.748 148.945 141.653 148.302C140.55 148.386 139.466 148.63 138.434 149.027C137.394 149.401 136.412 149.919 135.515 150.566C136.612 150.48 137.69 150.235 138.717 149.84ZM167.634 133.25C168.684 132.887 169.674 132.368 170.57 131.712C169.467 131.802 168.382 132.052 167.351 132.455C166.308 132.821 165.325 133.34 164.433 133.993C165.554 133.908 166.657 133.658 167.705 133.25H167.634ZM115.936 123.558C116.978 123.187 117.96 122.669 118.855 122.019C116.646 122.235 114.531 123.021 112.717 124.301C113.844 124.216 114.953 123.966 116.007 123.558H115.936Z" fill="black"/>
<path d="M35.1609 60.9306C34.9309 55.6246 35.9921 31.447 37.7962 24.7792C39.6002 18.1113 46.1796 -0.724912 51.4325 0.141731C56.6854 1.00837 55.1998 6.66809 55.1998 6.66809C55.1998 6.66809 59.2323 -0.84871 64.4499 0.495471C69.6674 1.83965 67.0498 10.5945 67.0498 10.5945C67.0498 10.5945 71.7544 3.18383 76.8659 4.89943C81.9773 6.61503 77.874 14.9631 77.874 14.9631C77.874 14.9631 81.8535 7.99459 85.4616 11.1782C89.7948 14.9985 80.9868 27.0961 79.5542 34.5422C79.2182 36.3108 75.3802 69.6147 75.3802 69.6147L35.1609 60.9306Z" fill="#F7A9A0"/>
<path d="M78.2105 14.2906C71.7372 23.1339 70.4461 28.1569 69.7386 38.9281C69.7386 39.1403 69.4026 39.158 69.4026 38.9281C69.1373 28.3161 69.8624 21.8075 77.786 13.9369C78.1751 13.5832 78.5819 13.8839 78.2105 14.2906Z" fill="#263238"/>
<path d="M67.5809 9.95768C61.6736 19.7384 60.2233 25.1505 58.6315 36.3638C58.6315 36.5229 58.3485 36.5053 58.3485 36.3638C58.9852 25.2212 59.8519 18.6772 67.0326 9.83388C67.3687 9.32097 67.8462 9.49783 67.5809 9.95768Z" fill="#263238"/>
<path d="M55.1294 7.28652C50.1064 17.1733 48.267 23.0453 48.0548 34.1348C48.0417 34.1786 48.0149 34.217 47.9782 34.2443C47.9416 34.2716 47.8971 34.2864 47.8514 34.2864C47.8057 34.2864 47.7612 34.2716 47.7246 34.2443C47.6879 34.217 47.6611 34.1786 47.648 34.1348C46.693 22.8153 48.9391 15.4754 54.7227 7.14502C55.2179 6.59674 55.4478 6.66749 55.1294 7.28652Z" fill="#263238"/>
<path d="M75.0441 76.5651C75.0441 76.5651 85.037 67.1381 88.5213 62.0444C92.0055 56.9506 97.9836 33.1268 92.9076 31.535C86.3635 29.501 80.2086 42.5537 78.0331 49.3454C78.0331 49.3454 62.8934 44.6054 56.4555 53.0242C50.0175 61.443 75.0441 76.5651 75.0441 76.5651Z" fill="#F7A9A0"/>
<path d="M90.9622 31.5706C83.6576 34.0114 81.3761 43.1023 78.7585 49.5402C78.7249 49.6375 78.6683 49.7253 78.5934 49.7959C78.5185 49.8666 78.4277 49.918 78.3285 49.9459C78.2294 49.9737 78.125 49.977 78.0243 49.9557C77.9236 49.9343 77.8296 49.8889 77.7503 49.8232C71.277 48.2491 61.6909 47.9307 56.5264 52.6C56.4982 52.6328 56.4582 52.6531 56.4151 52.6565C56.372 52.6598 56.3293 52.6458 56.2964 52.6177C56.2636 52.5895 56.2433 52.5495 56.24 52.5064C56.2367 52.4633 56.2506 52.4206 56.2788 52.3877C61.2487 46.6042 70.6933 46.1621 77.6795 48.3198C80.2441 41.6874 82.9856 32.6495 91.033 31.4999C90.9622 31.4822 90.9622 31.5529 90.9622 31.5706Z" fill="#263238"/>
<path d="M136.116 107.587C129.537 118.977 91.5105 154.085 58.295 160.169C53.8026 160.983 36.682 157.375 33.0916 146.02C26.7068 125.787 31.8182 84.0109 35.0725 58.8606C35.7092 53.9614 81.3053 64.0428 80.1203 71.5419C78.8115 79.8546 73.93 110.364 74.6905 110.718C77.4142 111.973 106.526 99.3806 125.681 95.2596C139.3 92.3236 141.192 98.8146 136.116 107.587Z" fill="#F7A9A0"/>
<path d="M28.6881 71.2769L80.6514 82.5255C80.6514 82.5255 75.929 109.055 76.8487 108.932C77.7684 108.808 114.238 95.4721 128.299 94.0749C142.36 92.6776 142.342 98.8679 135.215 110.47C128.087 122.073 81.3942 160.913 58.3839 160.913C46.6754 160.913 35.7804 153.413 33.6227 149.823C27.0609 138.751 28.6881 71.2769 28.6881 71.2769Z" fill="#455A64"/>
<path d="M28.6881 71.2769L80.6514 82.5255C80.6514 82.5255 75.929 109.055 76.8487 108.932C77.7684 108.808 114.238 95.4721 128.299 94.0749C142.36 92.6776 142.342 98.8679 135.215 110.47C128.087 122.073 81.3942 160.913 58.3839 160.913C46.6754 160.913 35.7804 153.413 33.6227 149.823C27.0609 138.751 28.6881 71.2769 28.6881 71.2769Z" fill="#495EE9"/>
<path opacity="0.1" d="M103.149 108.277C102.677 109.275 102.349 110.335 102.176 111.425C102.902 110.588 103.499 109.646 103.945 108.631C104.422 107.635 104.75 106.574 104.917 105.483C104.203 106.329 103.608 107.269 103.149 108.277ZM61.8682 154.669C61.3884 155.664 61.0606 156.725 60.8954 157.817C62.3057 156.108 63.2446 154.059 63.6192 151.875C62.9089 152.72 62.3195 153.661 61.8682 154.669ZM31.2704 122.833C30.785 123.827 30.4512 124.888 30.2799 125.981C30.9995 125.139 31.595 124.198 32.0486 123.187C32.5116 122.185 32.8388 121.127 33.0213 120.039C32.305 120.88 31.7151 121.822 31.2704 122.833ZM76.495 122.957C76.0257 123.962 75.6983 125.028 75.5222 126.123C76.249 125.279 76.8452 124.331 77.2909 123.311C77.7685 122.313 78.1019 121.253 78.2813 120.162C77.5557 121.01 76.9542 121.957 76.495 122.975V122.957ZM53.8208 136.08C53.3538 137.08 53.0265 138.14 52.848 139.229C53.5744 138.391 54.1706 137.449 54.6167 136.434C55.0943 135.437 55.4278 134.377 55.6071 133.286C54.8813 134.127 54.2798 135.068 53.8208 136.08ZM55.8371 104.138C55.3624 105.135 55.0347 106.196 54.8643 107.287C56.2745 105.577 57.2135 103.528 57.588 101.344C56.8427 102.181 56.2231 103.123 55.7486 104.138H55.8371ZM32.5968 80.3853C32.1193 81.3825 31.7858 82.4425 31.6064 83.5335C32.3384 82.7002 32.9352 81.7572 33.3751 80.739C33.85 79.7408 34.1834 78.6812 34.3655 77.5908C33.6451 78.4328 33.0495 79.3739 32.5968 80.3853ZM126.035 107.216C125.664 106.175 125.146 105.192 124.496 104.298C124.586 105.401 124.837 106.485 125.239 107.517C125.6 108.559 126.113 109.542 126.76 110.435C126.684 109.34 126.452 108.262 126.071 107.234L126.035 107.216ZM95.2605 128.44C94.8864 127.4 94.3684 126.418 93.7218 125.522C93.8136 126.625 94.0638 127.709 94.4646 128.74C94.8282 129.785 95.3469 130.769 96.0033 131.659C95.9129 130.57 95.6749 129.499 95.2959 128.475L95.2605 128.44ZM72.1441 104.51C71.7732 103.469 71.2551 102.486 70.6054 101.592C70.8212 103.8 71.6074 105.915 72.8869 107.729C72.8031 106.639 72.5649 105.568 72.1795 104.545L72.1441 104.51ZM69.1551 139.14C68.7842 138.099 68.266 137.116 67.6163 136.222C67.7081 137.325 67.9584 138.409 68.3592 139.441C68.7261 140.484 69.2446 141.467 69.8979 142.359C69.8141 141.27 69.5759 140.198 69.1904 139.176L69.1551 139.14ZM39.5123 135.408C39.1454 134.365 38.6269 133.382 37.9736 132.49C38.0763 133.591 38.3261 134.674 38.7164 135.709C39.0872 136.75 39.6054 137.733 40.2551 138.627C40.1732 137.538 39.935 136.465 39.5477 135.444L39.5123 135.408ZM48.8685 86.4518C48.4981 85.4048 47.9799 84.4162 47.3298 83.5158C47.4157 84.6238 47.6599 85.7138 48.0549 86.7525C48.4367 87.7889 48.9541 88.7702 49.5937 89.6708C49.5177 88.582 49.2854 87.5098 48.9039 86.4872L48.8685 86.4518ZM45.3312 114.22C44.9571 113.18 44.4391 112.198 43.7924 111.301C43.8843 112.405 44.1345 113.489 44.5353 114.52C44.9022 115.563 45.4207 116.547 46.074 117.439C46.0035 116.351 45.7772 115.279 45.4019 114.255L45.3312 114.22ZM115.724 122.833C114.683 123.204 113.7 123.722 112.806 124.372C113.908 124.278 114.992 124.028 116.025 123.629C117.066 123.258 118.049 122.74 118.943 122.09C117.84 122.182 116.756 122.432 115.724 122.833ZM60.754 121.56C59.7175 121.941 58.7362 122.459 57.8356 123.098C58.939 123.009 60.0234 122.758 61.0546 122.356C62.0976 121.989 63.0809 121.47 63.9729 120.817C62.8673 120.884 61.7773 121.111 60.7362 121.489L60.754 121.56ZM65.9538 88.9103C64.9139 89.2844 63.9316 89.8023 63.0355 90.449C64.1328 90.3569 65.211 90.1067 66.2368 89.7061C67.2829 89.3464 68.2673 88.8274 69.1551 88.1674C68.0553 88.235 66.9711 88.4614 65.9361 88.8395L65.9538 88.9103ZM36.4525 99.1508C35.4127 99.5249 34.4304 100.043 33.5342 100.69C35.7441 100.49 37.8617 99.7092 39.6715 98.4256C38.5677 98.4939 37.4785 98.7141 36.4349 99.0801L36.4525 99.1508ZM85.4975 143.367C84.4593 143.745 83.4775 144.263 82.5792 144.906C84.789 144.707 86.9067 143.926 88.7165 142.642C87.6082 142.726 86.518 142.971 85.4798 143.367H85.4975ZM46.0033 152.016C44.962 152.387 43.9792 152.905 43.085 153.555C44.1884 153.465 45.2728 153.215 46.304 152.812C47.347 152.445 48.3303 151.927 49.2222 151.273C48.1132 151.363 47.023 151.614 45.9856 152.016H46.0033ZM88.5749 108.047C87.5351 108.421 86.5528 108.939 85.6567 109.586C86.7572 109.489 87.8398 109.245 88.8756 108.861C89.9121 108.479 90.8934 107.962 91.7939 107.322C90.6854 107.404 89.5949 107.649 88.5573 108.047H88.5749Z" fill="black"/>
<path d="M77.2552 109.161C76.8601 113.122 76.1683 117.048 75.1858 120.905C74.3192 124.832 73.0811 128.634 71.9315 132.472H71.79C72.7982 128.617 73.5587 124.672 74.3723 120.764C75.1859 116.855 75.8049 112.946 76.813 109.091C76.813 108.808 77.2729 108.896 77.2552 109.161Z" fill="#263238"/>
<path d="M77.5915 92.3238C71.578 90.8382 65.4938 89.6532 59.392 88.5035C53.2901 87.3539 47.1882 86.1689 41.0687 85.1608C37.5313 84.5948 34.1355 84.0111 30.6512 83.5513C30.6512 83.5513 30.5274 83.6928 30.6512 83.7105C36.647 85.2138 42.7489 86.4165 48.833 87.6192C54.9172 88.8219 61.0368 89.9538 67.1387 91.0327C70.676 91.6341 74.0719 92.1823 77.5561 92.6245C77.6799 92.6599 77.7684 92.3769 77.5915 92.3238Z" fill="#263238"/>
<path d="M94.7469 145.401C95.702 144.552 96.7632 143.827 97.7713 143.049C98.7794 142.271 99.7168 141.51 100.707 140.767L106.721 136.151C110.718 133.056 114.644 129.855 118.606 126.707C120.87 124.938 123.098 123.169 125.327 121.259C125.336 121.251 125.347 121.245 125.359 121.241C125.37 121.237 125.383 121.235 125.395 121.236C125.407 121.237 125.42 121.24 125.431 121.246C125.442 121.251 125.452 121.259 125.46 121.268C125.468 121.277 125.474 121.288 125.478 121.3C125.482 121.311 125.484 121.324 125.483 121.336C125.482 121.348 125.479 121.36 125.473 121.372C125.468 121.383 125.46 121.392 125.451 121.401C122.727 123.965 119.968 126.494 117.138 128.935L118.199 128.422C119.296 127.874 120.357 127.29 121.418 126.654C121.418 126.654 121.577 126.742 121.418 126.795C120.423 127.498 119.383 128.136 118.305 128.705C117.775 128.988 117.244 129.271 116.696 129.519L115.9 129.855C115.263 130.403 114.627 130.951 113.972 131.482C110.046 134.689 106.037 137.772 101.945 140.732C100.766 141.546 99.6166 142.342 98.4965 143.12C97.2761 143.916 96.0911 144.8 94.8 145.525C94.7782 145.514 94.7609 145.495 94.7512 145.473C94.7415 145.45 94.7401 145.425 94.7469 145.401Z" fill="#263238"/>
<path d="M146.321 121.012L152.388 111.78L158.101 119.544L155.766 126.407L149.293 126.548L146.321 121.012Z" fill="#263238"/>
<path d="M149.293 126.547L138.539 198.054L149.452 223.258L159.303 197.276L155.766 126.406L149.293 126.547Z" fill="#263238"/>
<path d="M154.635 111.125C148.321 112.646 137.408 103.06 133.075 95.2069C132.774 94.6763 133.57 89.0166 134.189 82.0835C134.56 77.8741 134.861 73.2402 134.843 68.8716L161.869 75.2564C160.361 80.6454 159.524 86.1996 159.375 91.7934C159.373 92.3884 159.439 92.9816 159.569 93.5621C159.569 93.6505 159.569 93.7389 159.569 93.8627C160.1 97.2409 160.666 109.621 154.635 111.125Z" fill="#F7A9A0"/>
<path d="M136.665 69.3667C137.496 75.0618 141.352 93.8096 156.757 94.1279C157.685 94.1507 158.614 94.0974 159.534 93.9687C159.527 93.8686 159.527 93.7682 159.534 93.6681C159.405 93.0868 159.334 92.4945 159.321 91.8994C159.484 86.3055 160.327 80.7523 161.833 75.3625L136.665 69.3667Z" fill="#263238"/>
<path d="M128.547 38.7514C126.477 48.5321 133.959 75.628 141.281 81.1993C151.893 89.229 168.059 88.6453 174.567 76.1586C180.881 64.0609 170.517 28.9354 162.452 24.0362C150.567 16.7139 131.642 24.2838 128.547 38.7514Z" fill="#F7A9A0"/>
<path d="M152.671 54.8105C152.671 54.8105 152.548 54.9344 152.565 55.0051C153.113 56.7738 153.45 58.9846 151.964 60.0458C151.964 60.0458 151.964 60.1696 151.964 60.1342C153.945 59.303 153.485 56.4377 152.671 54.8105Z" fill="#263238"/>
<path d="M150.514 53.3427C147.525 53.9087 148.886 59.8691 151.663 59.3385C154.44 58.8079 153.025 52.8652 150.514 53.3427Z" fill="#263238"/>
<path d="M163.672 52.0871C163.672 51.9986 163.831 52.0871 163.849 52.2109C164.202 54.068 164.945 56.1373 166.749 56.3672V56.4733C164.662 56.6325 163.707 53.8557 163.672 52.0871Z" fill="#263238"/>
<path d="M164.874 49.7531C167.793 48.8511 169.384 54.7584 166.643 55.5897C163.902 56.4209 162.434 50.5136 164.874 49.7531Z" fill="#263238"/>
<path d="M147.559 51.1679C148.32 50.7788 148.957 50.2836 149.682 49.8238C150.407 49.3639 151.185 48.9571 151.574 48.0551C151.66 47.7843 151.652 47.4928 151.553 47.2268C151.453 46.9608 151.268 46.7357 151.026 46.5871C150.504 46.3558 149.93 46.2698 149.363 46.3383C148.796 46.4068 148.259 46.6272 147.807 46.9762C146.78 47.5417 145.998 48.468 145.614 49.5761C145.546 49.8325 145.552 50.1031 145.634 50.3555C145.715 50.608 145.868 50.8316 146.073 50.9996C146.279 51.1676 146.528 51.2728 146.792 51.3027C147.055 51.3325 147.322 51.2857 147.559 51.1679Z" fill="#A6A6A6"/>
<path d="M166.484 46.2327C165.648 46.2766 164.809 46.2766 163.973 46.2327C163.09 46.3357 162.198 46.1362 161.444 45.6667C161.231 45.4754 161.087 45.2187 161.036 44.9369C160.985 44.6551 161.029 44.3644 161.161 44.1103C161.496 43.6502 161.949 43.2881 162.471 43.0611C162.993 42.8341 163.567 42.7506 164.132 42.8192C165.301 42.7782 166.443 43.1756 167.333 43.9334C167.504 44.1203 167.62 44.3505 167.668 44.5988C167.717 44.8472 167.696 45.1041 167.609 45.3415C167.521 45.5788 167.37 45.7875 167.171 45.9447C166.973 46.1019 166.735 46.2015 166.484 46.2327Z" fill="#A6A6A6"/>
<path d="M156.138 65.8649C156.779 66.4788 157.541 66.953 158.375 67.2574C159.21 67.5619 160.098 67.6899 160.984 67.6336C161.76 67.6116 162.529 67.4745 163.266 67.2268L163.672 67.0853L164.079 66.9261C164.17 66.8822 164.245 66.8107 164.292 66.7217C164.34 66.6327 164.358 66.5309 164.344 66.4309C164.352 66.3663 164.352 66.301 164.344 66.2364V66.0772C164.061 64.6446 163.425 62.5399 163.425 62.5399C164.008 62.6814 166.962 63.265 166.714 62.5399C165.078 56.1776 162.803 49.9971 159.923 44.0927C159.906 44.0482 159.873 44.012 159.83 43.9921C159.787 43.9722 159.737 43.9702 159.693 43.9866C159.648 44.003 159.612 44.0365 159.592 44.0796C159.572 44.1227 159.57 44.172 159.587 44.2166C161.072 50.1062 163.566 55.6951 165.14 61.5848C164.101 61.3614 163.034 61.2899 161.974 61.3726C161.78 61.4787 163.265 65.4581 163.354 66.1125C162.217 66.5022 161.013 66.6561 159.815 66.5648C158.617 66.4736 157.45 66.1392 156.385 65.582C156.12 65.582 155.996 65.7411 156.138 65.8649Z" fill="#263238"/>
<path d="M162.275 66.9786C161.67 68.1511 160.775 69.1495 159.675 69.8792C159.068 70.2422 158.366 70.4147 157.659 70.3744C156.085 70.2506 155.891 68.8887 155.891 67.686C155.921 67.0376 156.034 66.3958 156.227 65.7759C158.064 66.808 160.183 67.2291 162.275 66.9786Z" fill="#263238"/>
<path d="M159.675 69.8798C159.068 70.2429 158.366 70.4154 157.659 70.375C156.085 70.2512 155.891 68.8894 155.891 67.6867C156.676 67.5749 157.476 67.7303 158.163 68.1281C158.849 68.5258 159.382 69.1428 159.675 69.8798Z" fill="#FF9CBD"/>
<g opacity="0.2">
<path d="M155.519 42.1119C156.5 42.0265 157.475 41.8788 158.437 41.6697C159.41 41.4221 160.312 40.9799 161.285 40.75C163.151 40.4225 165.06 40.4225 166.927 40.75C167.086 40.75 167.086 40.8738 166.927 40.8561C164.952 40.5886 162.943 40.7515 161.037 41.3336C159.518 41.9359 157.923 42.3229 156.297 42.4833C152.567 42.5054 148.939 43.7064 145.932 45.9145C148.676 43.7171 152.015 42.3926 155.519 42.1119Z" fill="black"/>
<path d="M154.882 39.5292C155.816 39.4643 156.745 39.3283 157.659 39.1224C158.578 38.8924 159.427 38.468 160.365 38.2557C162.12 37.9499 163.915 37.9499 165.671 38.2557C165.83 38.2557 165.83 38.3795 165.671 38.3618C163.796 38.1231 161.892 38.2798 160.082 38.8217C158.643 39.3923 157.13 39.7555 155.589 39.9006C152.054 39.9291 148.618 41.0744 145.773 43.1726C148.38 41.08 151.551 39.8116 154.882 39.5292Z" fill="black"/>
</g>
<path d="M131.235 62.097C131.235 62.097 121.755 46.4797 122.639 37.4419C123.028 33.3563 128.582 30.6148 128.582 30.6148C128.155 28.9489 128.202 27.1969 128.718 25.5563C129.234 23.9157 130.197 22.4517 131.5 21.3294C136.329 16.7839 148.02 17.7921 148.02 17.7921C148.02 17.7921 155.589 6.84406 166.308 11.1773C177.026 15.5105 170.057 27.6612 170.057 27.6612C170.057 27.6612 173.984 33.2501 164.38 37.6187C154.776 41.9873 135.904 37.7072 135.904 37.7072C136.801 44.2872 136.705 50.9645 135.621 57.5162C135.382 58.6092 134.846 59.6151 134.072 60.4233C133.298 61.2315 132.317 61.8106 131.235 62.097Z" fill="#A6A6A6"/>
<path d="M149.859 17.9348C147.469 16.9634 144.903 16.4997 142.324 16.5729C140.016 16.535 137.719 16.8939 135.533 17.6341C133.564 18.1922 131.785 19.2757 130.386 20.7682C128.987 22.2607 128.021 24.106 127.591 26.106C127.435 27.144 127.488 28.2027 127.746 29.2201C128.004 30.2375 128.462 31.1931 129.095 32.031C129.095 32.031 129.254 32.031 129.201 32.031C126.725 28.9536 128.016 24.1782 130.58 21.6136C133.713 18.8897 137.731 17.3997 141.882 17.4219C144.541 17.3882 147.194 17.6672 149.788 18.2532C149.947 18.2001 150 18.0056 149.859 17.9348Z" fill="#A6A6A6"/>
<path d="M136.417 60.6651C136.417 60.6651 129.236 52.4586 125.434 55.1115C121.631 57.7645 127.733 70.1451 132.65 71.3832C133.271 71.5892 133.927 71.6669 134.579 71.6116C135.23 71.5563 135.864 71.3691 136.441 71.0615C137.019 70.7538 137.527 70.3321 137.937 69.8219C138.346 69.3117 138.647 68.7237 138.823 68.0935L136.417 60.6651Z" fill="#F7A9A0"/>
<path d="M127.274 58.613V58.7368C130.811 59.7272 132.827 62.6101 134.348 65.6699C134.116 65.3607 133.821 65.1048 133.482 64.9193C133.143 64.7338 132.768 64.6231 132.383 64.5946C131.997 64.5661 131.61 64.6205 131.248 64.7541C130.885 64.8877 130.555 65.0975 130.28 65.3692C130.257 65.3857 130.241 65.4107 130.236 65.4389C130.231 65.4671 130.237 65.4961 130.254 65.5196C130.27 65.543 130.295 65.559 130.324 65.564C130.352 65.569 130.381 65.5625 130.404 65.5461C130.965 65.2948 131.59 65.2245 132.192 65.345C132.794 65.4654 133.344 65.7707 133.765 66.2182C134.442 66.9776 135.035 67.8078 135.533 68.6943C135.71 68.9773 136.241 68.6943 136.082 68.429C135.799 64.1135 131.855 58.5422 127.274 58.613Z" fill="#263238"/>
<path d="M152.14 64.4675C150.592 64.6756 149.016 64.4449 147.591 63.8015C146.167 63.1582 144.952 62.1281 144.085 60.8283C143.217 59.5285 142.732 58.0114 142.684 56.4494C142.636 54.8875 143.028 53.3434 143.814 51.993C144.601 50.6426 145.75 49.54 147.132 48.8107C148.514 48.0813 150.073 47.7546 151.632 47.8676C153.191 47.9805 154.686 48.5287 155.949 49.4497C157.211 50.3707 158.19 51.6276 158.773 53.0773C159.182 54.0946 159.386 55.1825 159.375 56.2788C159.363 57.3752 159.136 58.4585 158.705 59.4669C158.275 60.4753 157.65 61.3891 156.867 62.1561C156.083 62.923 155.156 63.5282 154.139 63.9369C153.495 64.1898 152.825 64.3678 152.14 64.4675ZM150.089 49.0094C149.484 49.0947 148.89 49.249 148.32 49.4692C146.617 50.152 145.238 51.4577 144.464 53.1208C143.69 54.7839 143.578 56.6795 144.151 58.4222C144.724 60.1649 145.94 61.6238 147.551 62.5022C149.161 63.3806 151.046 63.6126 152.821 63.151C154.597 62.6893 156.13 61.5687 157.109 60.0171C158.088 58.4654 158.439 56.5992 158.091 54.7979C157.743 52.9966 156.722 51.3956 155.235 50.3203C153.749 49.245 151.908 48.7763 150.089 49.0094Z" fill="#455A64"/>
<path d="M170.676 59.6216C167.51 60.046 164.203 57.1808 163.124 52.9714C162.581 50.9575 162.68 48.8246 163.407 46.8695C163.666 46.0135 164.142 45.2391 164.788 44.6215C165.435 44.0039 166.231 43.5643 167.098 43.3453C167.965 43.1263 168.874 43.1354 169.737 43.3718C170.599 43.6081 171.386 44.0637 172.02 44.6941C173.619 46.0726 174.725 47.9357 175.168 50.0001C176.3 54.4571 174.532 58.8434 171.207 59.6039C171.031 59.6265 170.853 59.6324 170.676 59.6216ZM167.793 44.358H167.369C166.687 44.5682 166.065 44.9377 165.554 45.436C165.044 45.9342 164.659 46.5469 164.433 47.2233C163.802 48.9549 163.722 50.8388 164.203 52.6177C165.193 56.491 168.2 59.0733 170.924 58.3658C173.647 57.6584 175.08 53.9796 174.089 50.1062C173.67 48.3097 172.699 46.6895 171.313 45.4723C170.837 45.0497 170.278 44.7321 169.672 44.5402C169.065 44.3482 168.425 44.2861 167.793 44.358Z" fill="#455A64"/>
<path d="M158.755 54.0675L157.836 53.4131C158.808 52.069 161.284 49.9642 163.796 51.6445L163.195 52.5819C160.948 51.0785 158.844 53.9437 158.755 54.0675Z" fill="#455A64"/>
<path d="M123.24 65.299L122.161 65.0514C122.268 64.5385 123.364 60.0815 125.699 59.0733C128.033 58.0652 142.713 55.8013 143.385 55.7129L143.562 56.8095C139.3 57.4815 127.874 59.3563 126.194 60.0992C124.514 60.842 123.523 64.0786 123.24 65.299Z" fill="#455A64"/>
<path d="M159.516 93.3142L151.964 108.808L133.623 87.46L127.592 93.5265C127.592 93.5265 144.695 126.742 144.907 125.362L152.388 112.133L161.232 122.303L162.098 98.3549L159.516 93.3142Z" fill="#EBEBEB"/>
<path d="M162.274 110.347C162.274 106.385 162.416 102.405 162.274 98.4437C162.274 98.3199 162.045 98.2314 162.009 98.4437C160.966 102.193 160.983 117.333 160.718 120.941C160.364 120.517 152.547 111.974 152.458 112.098C150.884 114.167 145.384 123.806 145.012 124.691C142.324 119.385 131.889 100.195 128.617 95.154C128.597 95.1286 128.568 95.1109 128.537 95.1039C128.505 95.0969 128.472 95.101 128.443 95.1155C128.414 95.13 128.391 95.1541 128.377 95.1836C128.364 95.2131 128.361 95.2464 128.369 95.2777C130.686 100.814 144.464 126.671 144.694 126.618C147.547 122.094 150.162 117.424 152.529 112.628C153.82 114.397 161.638 124.018 161.708 123.435C162.122 119.085 162.31 114.716 162.274 110.347Z" fill="#263238"/>
<path d="M231.447 211.266C224.956 220.534 207.287 222.32 163.248 230.934C157.146 232.136 137.142 191.386 143.58 189.777C151.698 187.743 183.64 181.641 186.028 181.482C206.208 180.138 235.851 204.899 231.447 211.266Z" fill="#F7A9A0"/>
<path d="M152.406 187.69C152.406 187.69 133.729 190.52 124.39 195.03C114.794 199.974 106.54 207.172 100.336 216.006C93.6156 225.522 83.9233 253.148 91.4048 257.357C98.1787 261.142 106.651 232.384 106.651 232.384C106.651 232.384 93.1734 260.276 102.158 263.336C111.143 266.395 119.084 232.49 119.084 232.49C119.084 232.49 105.872 261.478 115.635 263.159C123.028 264.432 131.942 234.082 131.942 234.082C131.942 234.082 120.764 259.073 128.299 260.718C136.629 262.487 146.622 235.019 146.622 235.019C166.467 235.957 176.3 228.281 182.65 221.984C184.189 220.41 152.406 187.69 152.406 187.69Z" fill="#F7A9A0"/>
<path d="M110.682 222.427C108.914 225.646 107.234 228.9 105.836 232.261C104.439 235.621 103.13 239.035 102.034 242.501C100.526 247.02 99.5354 251.696 99.0801 256.438C100.495 248.09 105.359 235.975 106.774 232.614C108.189 229.254 109.409 225.823 110.824 222.48C110.859 222.391 110.736 222.356 110.682 222.427Z" fill="#263238"/>
<path d="M122.922 227.29C120.924 231.5 118.784 235.603 116.98 239.901C115.176 244.198 113.849 248.39 112.346 252.776C112.222 253.113 112.452 253.059 112.576 252.776C114.256 248.461 116.113 244.588 117.882 240.29C119.65 235.992 121.171 231.606 123.046 227.379C123.046 227.272 122.94 227.184 122.922 227.29Z" fill="#263238"/>
<path d="M134.171 229.59C130.949 235.964 128.4 242.656 126.566 249.558C126.46 249.894 126.743 249.806 126.849 249.452C129.254 242.766 131.093 237.513 134.383 229.696C134.436 229.59 134.242 229.448 134.171 229.59Z" fill="#263238"/>
<path d="M148.515 187.69L187.107 230.722C187.107 230.722 226.141 221.772 231.889 211.762C235.674 205.165 206.279 178.476 184.136 181.588L148.515 187.69Z" fill="#495EE9"/>
<path opacity="0.1" d="M182.774 214.521C182.604 215.612 182.276 216.672 181.801 217.669C181.355 218.684 180.759 219.626 180.033 220.464C180.206 219.374 180.534 218.314 181.005 217.316C181.465 216.308 182.06 215.368 182.774 214.521ZM209.587 212.098C209.118 213.103 208.79 214.169 208.614 215.264C209.337 214.417 209.933 213.47 210.383 212.452C210.86 211.455 211.194 210.395 211.373 209.304C210.651 210.148 210.05 211.088 209.587 212.098ZM190.468 203.078C189.473 202.598 188.412 202.27 187.32 202.105C189.029 203.515 191.078 204.454 193.262 204.829C192.419 204.115 191.478 203.525 190.468 203.078ZM209.587 191.246C209.958 192.287 210.476 193.27 211.126 194.164C210.91 191.955 210.124 189.84 208.844 188.027C208.936 189.13 209.186 190.214 209.587 191.246ZM170.553 200.549C170.916 201.593 171.435 202.577 172.091 203.467C171.876 201.258 171.089 199.143 169.81 197.33C169.902 198.433 170.152 199.517 170.553 200.549ZM154.635 190.361C155.675 189.987 156.657 189.469 157.553 188.822C156.451 188.908 155.367 189.153 154.334 189.548C153.296 189.925 152.314 190.443 151.416 191.086C152.518 191 153.602 190.756 154.635 190.361ZM187.496 186.824C188.536 186.45 189.519 185.932 190.415 185.285C189.313 185.373 188.229 185.617 187.196 186.01C186.159 186.392 185.178 186.909 184.278 187.549C185.368 187.447 186.439 187.198 187.461 186.806L187.496 186.824ZM199.665 224.602C200.706 224.232 201.689 223.713 202.583 223.064C201.48 223.154 200.395 223.404 199.364 223.807C198.321 224.173 197.338 224.692 196.446 225.345C197.538 225.242 198.609 224.986 199.629 224.585L199.665 224.602ZM228.671 203.166C227.88 203.314 227.105 203.533 226.354 203.821C225.313 204.192 224.33 204.71 223.436 205.359C224.537 205.259 225.62 205.009 226.655 204.617C227.454 204.332 228.22 203.958 228.936 203.502L228.671 203.166Z" fill="black"/>
<path d="M210.559 188.521C202.888 182.978 193.442 180.459 184.029 181.447C183.923 181.447 183.923 181.641 184.029 181.641C193.721 181.376 206.792 186.434 210.453 188.627C210.577 188.751 210.665 188.592 210.559 188.521Z" fill="#263238"/>
<path d="M197.666 223.47C193.669 218.518 189.424 213.796 185.144 209.073C180.864 204.351 176.619 199.611 172.233 194.924C169.757 192.324 167.298 189.618 164.734 187.177C164.72 187.159 164.699 187.146 164.675 187.143C164.652 187.14 164.629 187.146 164.61 187.16C164.591 187.174 164.579 187.195 164.575 187.218C164.572 187.241 164.578 187.265 164.592 187.284C168.589 192.218 172.816 196.976 176.973 201.716C181.129 206.456 185.498 211.196 189.831 215.865C192.272 218.5 194.766 221.171 197.33 223.63C197.542 223.806 197.772 223.647 197.666 223.47Z" fill="#263238"/>
<path d="M148.444 187.142C150.813 186.419 153.231 185.863 155.678 185.479C158.101 185.037 160.559 184.613 163 184.223C167.864 183.445 178.087 181.234 187.072 181.252C187.178 181.252 186.665 181.747 186.559 181.73C182.279 181.5 151.628 187.602 149.116 187.778C149.205 187.955 149.311 188.114 149.381 188.291C149.407 188.319 149.421 188.357 149.419 188.395C149.418 188.433 149.401 188.469 149.373 188.495C149.344 188.521 149.307 188.534 149.269 188.532C149.231 188.531 149.195 188.514 149.169 188.486C148.851 188.274 148.639 188.008 148.338 187.778C148.281 187.741 148.236 187.687 148.209 187.625C148.182 187.562 148.174 187.493 148.185 187.426C148.196 187.358 148.227 187.296 148.273 187.245C148.319 187.195 148.378 187.159 148.444 187.142Z" fill="#263238"/>
</g>
<rect x="1" y="1" width="494" height="512" rx="23" stroke="#021229" stroke-width="2"/>
</g>
<defs>
<filter id="filter0_d_3015_9360" x="0" y="0" width="496" height="518" filterUnits="userSpaceOnUse" color-interpolation-filters="sRGB">
<feFlood flood-opacity="0" result="BackgroundImageFix"/>
<feColorMatrix in="SourceAlpha" type="matrix" values="0 0 0 0 0 0 0 0 0 0 0 0 0 0 0 0 0 0 127 0" result="hardAlpha"/>
<feOffset dy="4"/>
<feComposite in2="hardAlpha" operator="out"/>
<feColorMatrix type="matrix" values="0 0 0 0 0.0407292 0 0 0 0 0.140418 0 0 0 0 0.2875 0 0 0 1 0"/>
<feBlend mode="normal" in2="BackgroundImageFix" result="effect1_dropShadow_3015_9360"/>
<feBlend mode="normal" in="SourceGraphic" in2="effect1_dropShadow_3015_9360" result="shape"/>
</filter>
<clipPath id="clip0_3015_9360">
<rect width="496" height="514" rx="24" fill="white"/>
</clipPath>
</defs>
</svg>
