<svg width="48" height="48" viewBox="0 0 48 48" fill="none" xmlns="http://www.w3.org/2000/svg">
<mask id="mask0_3015_9334" style="mask-type:luminance" maskUnits="userSpaceOnUse" x="0" y="0" width="48" height="48">
<path d="M48 0H0V48H48V0Z" fill="white"/>
</mask>
<g mask="url(#mask0_3015_9334)">
<path d="M3.51562 47.9981C2.61562 47.9981 1.71469 47.6559 1.02937 46.9706C0.365625 46.3069 0 45.4237 0 44.4844C0 43.545 0.365625 42.6628 1.02937 41.9981L8.98406 34.0434C9.25875 33.7687 9.70406 33.7687 9.97875 34.0434L13.9566 38.0203C14.0887 38.1525 14.1628 38.3306 14.1628 38.5172C14.1628 38.7037 14.0887 38.8828 13.9566 39.014L6.00187 46.9687C5.31656 47.654 4.41656 47.9962 3.51562 47.9962V47.9981ZM2.02406 45.9759C2.84625 46.7981 4.185 46.7981 5.00719 45.9759L12.465 38.5181L9.48187 35.535L2.02406 42.9928C1.20187 43.815 1.20187 45.1537 2.02406 45.9759Z" fill="#495EE9"/>
<path d="M11.4703 41.2095C11.2903 41.2095 11.1103 41.141 10.9734 41.0032L6.99557 37.0254C6.72088 36.7507 6.72088 36.3054 6.99557 36.0307C7.27025 35.756 7.71557 35.756 7.99025 36.0307L11.9681 40.0085C12.2428 40.2832 12.2428 40.7285 11.9681 41.0032C11.8312 41.1401 11.6512 41.2095 11.4712 41.2095H11.4703Z" fill="#495EE9"/>
<path d="M39.9909 43.9894C39.8999 43.9894 39.809 43.9716 39.7218 43.9359C39.4593 43.8272 39.2878 43.5703 39.2878 43.2863C39.2878 37.1897 34.3284 32.2303 28.2318 32.2303C27.8437 32.2303 27.5287 31.9153 27.5287 31.5272C27.5287 25.4306 22.5693 20.4713 16.4728 20.4713C16.0846 20.4713 15.7696 20.1562 15.7696 19.7681C15.7696 13.6716 10.8103 8.71219 4.7137 8.71219C4.42963 8.71219 4.17276 8.54063 4.06401 8.27813C3.95526 8.01562 4.01526 7.71281 4.21682 7.51219C9.06088 2.66812 15.5015 0 22.3528 0C29.204 0 35.6437 2.66812 40.4887 7.51219C45.3328 12.3562 48.0009 18.7969 48.0009 25.6481C48.0009 32.4994 45.3328 38.9391 40.4887 43.7841C40.3537 43.9181 40.1746 43.9903 39.9909 43.9903V43.9894ZM28.9162 30.8428C34.9153 31.1691 39.7987 35.7591 40.5834 41.6269C44.4703 37.2047 46.5928 31.5891 46.5928 25.6481C46.5928 19.1728 44.0709 13.0856 39.4931 8.50688C34.9153 3.92812 28.8281 1.40625 22.3528 1.40625C16.4118 1.40625 10.7962 3.52969 6.37401 7.41656C12.2418 8.20031 16.8309 13.0847 17.1581 19.0837C23.4853 19.4278 28.5721 24.5156 28.9171 30.8428H28.9162Z" fill="#495EE9"/>
<path d="M40.9574 9.734C40.7774 9.734 40.5974 9.66557 40.4606 9.52775C40.1859 9.25307 40.1859 8.80775 40.4606 8.53307L43.4709 5.52275C43.604 5.38963 43.6771 5.21338 43.6771 5.02588C43.6771 4.83838 43.604 4.66119 43.4709 4.529C43.3378 4.39682 43.1615 4.32275 42.974 4.32275C42.7865 4.32275 42.6093 4.39588 42.4771 4.529L39.4668 7.53932C39.1921 7.814 38.7468 7.814 38.4721 7.53932C38.1974 7.26463 38.1974 6.81932 38.4721 6.54463L41.4824 3.53432C41.8809 3.13588 42.4106 2.9165 42.974 2.9165C43.5374 2.9165 44.0671 3.13588 44.4656 3.53432C44.864 3.93275 45.0834 4.46244 45.0834 5.02588C45.0834 5.58932 44.864 6.119 44.4656 6.51744L41.4553 9.52775C41.3184 9.66463 41.1384 9.734 40.9584 9.734H40.9574Z" fill="#495EE9"/>
<path d="M28.2318 32.2302C28.0518 32.2302 27.8718 32.1618 27.7349 32.0239C27.4603 31.7493 27.4603 31.3039 27.7349 31.0293C32.3943 26.3699 36.1649 21.3936 38.3531 17.0174C40.3978 12.928 40.814 9.82581 39.494 8.50581C37.904 6.91581 33.6721 7.89081 28.4493 11.0502C28.1174 11.2508 27.6843 11.1449 27.4837 10.813C27.2831 10.4811 27.389 10.048 27.7209 9.84738C30.4987 8.16644 33.0834 7.03863 35.1956 6.583C37.5787 6.06925 39.3599 6.38238 40.4887 7.51113C42.2906 9.313 41.9784 12.9121 39.6112 17.6464C37.3574 22.1539 33.4931 27.2596 28.7296 32.023C28.5928 32.1599 28.4128 32.2293 28.2328 32.2293L28.2318 32.2302Z" fill="#495EE9"/>
<path d="M16.4728 20.4712C16.2928 20.4712 16.1128 20.4028 15.9759 20.265C15.7012 19.9903 15.7012 19.545 15.9759 19.2703C18.9815 16.2656 22.2094 13.5468 25.3106 11.4093C25.6303 11.189 26.0681 11.2697 26.2884 11.5893C26.5087 11.909 26.4281 12.3468 26.1084 12.5672C23.0756 14.6578 19.9162 17.3193 16.9697 20.265C16.8328 20.4018 16.6528 20.4712 16.4728 20.4712Z" fill="#495EE9"/>
</g>
</svg>
