<svg width="48" height="48" viewBox="0 0 48 48" fill="none" xmlns="http://www.w3.org/2000/svg">
<path d="M48 3.26995C48.0037 2.39348 47.6654 1.57064 47.0476 0.952823C46.4298 0.335011 45.6053 -0.00267686 44.7306 0.000510642C43.8566 0.00416689 43.0339 0.347573 42.4139 0.967448C42.1514 1.22995 41.6739 1.79695 41.4128 2.11167C41.3475 2.19023 41.2984 2.28087 41.2682 2.37842C41.238 2.47597 41.2273 2.57851 41.2367 2.6802C41.2461 2.78188 41.2755 2.88071 41.3231 2.97104C41.3708 3.06137 41.4357 3.14144 41.5143 3.20667C41.5928 3.2719 41.6835 3.32103 41.781 3.35123C41.8786 3.38143 41.9811 3.39213 42.0828 3.3827C42.1845 3.37327 42.2833 3.34391 42.3737 3.29628C42.464 3.24866 42.5441 3.18371 42.6093 3.10514C43.0184 2.61239 43.3566 2.22435 43.5136 2.06723C43.8415 1.73939 44.276 1.5577 44.737 1.55573H44.7444C45.2002 1.55573 45.6275 1.73198 45.9479 2.05251C46.2701 2.37473 46.4467 2.80476 46.4447 3.26339C46.4427 3.72435 46.261 4.15879 45.9332 4.48682C45.6397 4.78035 44.6307 5.5807 43.1852 6.59048C42.3301 5.12854 40.7442 4.1437 38.9318 4.1437H27.5445C26.0074 4.1437 24.5623 4.74229 23.4753 5.82914L0.713719 28.591C0.2535 29.0512 0 29.6631 0 30.3139C0 30.9647 0.2535 31.5767 0.713719 32.0368L15.9637 47.2869C16.4389 47.7619 17.0627 47.9994 17.6867 47.9994C18.3107 47.9994 18.9347 47.7618 19.4096 47.2869L42.1714 24.5252C43.2582 23.4383 43.8568 21.9932 43.8568 20.456V9.06885C43.8568 8.73276 43.8228 8.40464 43.7583 8.08729C45.4037 6.95507 46.6116 6.00792 47.0329 5.5866C47.6529 4.96673 47.9963 4.14398 48 3.26995ZM42.3016 20.456C42.3016 21.5777 41.8647 22.6323 41.0717 23.4254L18.3099 46.1872C17.9664 46.5308 17.4071 46.5308 17.0635 46.1872L1.8135 30.9372C1.64709 30.7708 1.55531 30.5494 1.55531 30.3139C1.55531 30.0784 1.647 29.8572 1.8135 29.6908L24.5752 6.9291C25.3684 6.13598 26.4229 5.6992 27.5445 5.6992H38.9317C40.2104 5.6992 41.3251 6.41517 41.8958 7.46723C40.9012 8.12619 39.888 8.75679 38.8576 9.35826C38.8235 9.32068 38.7885 9.28389 38.7527 9.24792C37.4792 7.97442 35.4071 7.97442 34.1336 9.24792C32.8601 10.5214 32.8601 12.5935 34.1336 13.867C34.7704 14.5037 35.6068 14.822 36.4432 14.822C37.2795 14.822 38.1159 14.5037 38.7527 13.867C39.6027 13.0169 39.8844 11.8114 39.5998 10.7248C40.5136 10.1923 41.4144 9.63762 42.3012 9.06135L42.3015 9.06895V20.456H42.3016ZM35.7487 11.9069C35.7945 11.9981 35.858 12.0794 35.9353 12.1461C36.0126 12.2129 36.1023 12.2637 36.1993 12.2958C36.2963 12.3278 36.3986 12.3405 36.5005 12.333C36.6023 12.3255 36.7017 12.298 36.7929 12.252C37.2499 12.0218 37.7032 11.7844 38.1527 11.5399C38.1572 11.9838 37.9912 12.4291 37.6532 12.7672C36.9861 13.4342 35.9008 13.4342 35.2337 12.7672C34.5667 12.1001 34.5667 11.0148 35.2337 10.3477C35.3924 10.1887 35.581 10.0627 35.7887 9.97687C35.9963 9.89102 36.2188 9.84704 36.4434 9.84745C36.7903 9.84745 37.1362 9.95376 37.4312 10.1627C36.9892 10.4031 36.5434 10.6365 36.094 10.8629C36.0028 10.9087 35.9214 10.9721 35.8547 11.0493C35.7879 11.1266 35.737 11.2163 35.705 11.3133C35.6729 11.4102 35.6602 11.5126 35.6677 11.6144C35.6752 11.7163 35.7027 11.8156 35.7487 11.9069Z" fill="#0C65DF"/>
<path d="M23.1714 15.8403C22.9652 15.8403 22.7674 15.9223 22.6215 16.0681C22.4757 16.2139 22.3938 16.4117 22.3938 16.618V33.041C22.3938 33.2473 22.4757 33.4451 22.6215 33.5909C22.7674 33.7367 22.9652 33.8187 23.1714 33.8187C23.3777 33.8187 23.5755 33.7367 23.7213 33.5909C23.8671 33.4451 23.9491 33.2473 23.9491 33.041V16.618C23.9491 16.4117 23.8671 16.2139 23.7213 16.0681C23.5755 15.9223 23.3777 15.8403 23.1714 15.8403ZM19.6154 22.5201C18.342 21.2464 16.2698 21.2465 14.9965 22.52C13.723 23.7935 13.723 25.8656 14.9965 27.1391C15.6334 27.7759 16.4696 28.0942 17.306 28.0941C18.1423 28.0941 18.9788 27.7756 19.6155 27.1391C20.2324 26.5221 20.5722 25.702 20.5722 24.8295C20.5722 23.9571 20.2324 23.1369 19.6154 22.5201ZM18.5157 26.0392C17.8486 26.7063 16.7633 26.7062 16.0963 26.0392C15.4293 25.3721 15.4293 24.2868 16.0963 23.6197C16.4299 23.2861 16.8679 23.1195 17.306 23.1195C17.7441 23.1195 18.1822 23.2861 18.5158 23.6197C18.6752 23.7782 18.8015 23.9667 18.8875 24.1744C18.9735 24.382 19.0175 24.6047 19.0169 24.8295C19.0175 25.0542 18.9735 25.2769 18.8874 25.4845C18.8014 25.6922 18.6751 25.8807 18.5157 26.0392ZM31.3462 22.52C30.0727 21.2464 28.0006 21.2465 26.7274 22.52C25.4539 23.7935 25.4539 25.8656 26.7274 27.1391C27.3641 27.7758 28.2004 28.0941 29.0369 28.0941C29.8732 28.0941 30.7097 27.7758 31.3463 27.1391C32.6197 25.8656 32.6197 23.7935 31.3462 22.52ZM30.2464 26.0392C29.5793 26.7063 28.4941 26.7062 27.827 26.0392C27.16 25.3721 27.16 24.2868 27.827 23.6197C28.1606 23.2861 28.5987 23.1195 29.0368 23.1195C29.4749 23.1195 29.913 23.2861 30.2465 23.6197C30.9136 24.2868 30.9136 25.3721 30.2464 26.0392Z" fill="#0C65DF"/>
</svg>
