<svg width="48" height="48" viewBox="0 0 48 48" fill="none" xmlns="http://www.w3.org/2000/svg">
<path d="M39.8805 23.5509C39.8305 23.4725 39.7655 23.4046 39.6893 23.3513C39.6131 23.2979 39.5271 23.2601 39.4363 23.24C39.3454 23.2199 39.2515 23.2179 39.1599 23.2341C39.0683 23.2503 38.9807 23.2843 38.9023 23.3344C36.007 25.18 32.8161 26.1158 29.4184 26.1158C25.182 26.1158 21.8696 24.5511 19.837 23.2384C19.7589 23.1879 19.6715 23.1533 19.58 23.1365C19.4885 23.1198 19.3945 23.1213 19.3036 23.1409C19.2126 23.1604 19.1264 23.1978 19.0499 23.2507C18.9733 23.3036 18.908 23.371 18.8575 23.4492C18.807 23.5274 18.7724 23.6147 18.7557 23.7062C18.739 23.7977 18.7404 23.8917 18.76 23.9826C18.7796 24.0736 18.8169 24.1598 18.8697 24.2363C18.9226 24.3129 18.9901 24.3783 19.0683 24.4287C21.261 25.8447 24.8366 27.5327 29.4184 27.5327C33.0386 27.5327 36.5813 26.494 39.6639 24.5291C39.8223 24.4281 39.9342 24.2683 39.9748 24.0849C40.0154 23.9014 39.9815 23.7094 39.8805 23.5509Z" fill="#495EE9"/>
<path d="M47.2916 20.0081C46.9062 19.965 46.558 20.2435 46.5153 20.6296C46.0786 24.5735 44.3615 28.1444 41.5495 30.9563C34.7985 37.7075 23.8136 37.7075 17.0625 30.9563C14.2692 28.163 12.555 24.617 12.1049 20.7016C12.0944 20.6099 12.0659 20.5211 12.021 20.4403C11.9762 20.3596 11.9159 20.2885 11.8435 20.231C11.7712 20.1736 11.6883 20.131 11.5994 20.1056C11.5106 20.0803 11.4177 20.0727 11.3259 20.0833C11.1406 20.1046 10.9714 20.1986 10.8555 20.3447C10.7395 20.4908 10.6863 20.6769 10.7076 20.8622C11.1672 24.8614 12.8469 28.5036 15.5766 31.4403L13.4346 33.5822L13.1922 33.3398C12.3822 32.5298 11.0643 32.5298 10.2542 33.3398L0.627554 42.9666L0.62746 42.9667L0.627366 42.9668C0.433851 43.1593 0.280434 43.3882 0.175995 43.6404C0.0715566 43.8925 0.0181711 44.1629 0.0189289 44.4358C0.0181918 44.7088 0.0715868 44.9791 0.176024 45.2313C0.280461 45.4835 0.433868 45.7124 0.627366 45.9049L2.11396 47.3916C2.30642 47.5851 2.53535 47.7385 2.7875 47.8429C3.03965 47.9474 3.31001 48.0008 3.58293 48C4.13793 48 4.65965 47.7839 5.05199 47.3916L14.6789 37.7647L14.6791 37.7645C15.489 36.9546 15.489 35.6366 14.6791 34.8265L14.4367 34.5841L16.5794 32.4415C20.1593 35.7633 24.7324 37.4256 29.3061 37.4256C34.1002 37.4256 38.8945 35.6008 42.5443 31.9511C45.5411 28.9542 47.4478 24.9884 47.9133 20.7845C47.9235 20.6927 47.9154 20.5998 47.8897 20.5111C47.864 20.4224 47.821 20.3396 47.7633 20.2675C47.7056 20.1954 47.6342 20.1354 47.5533 20.0909C47.4723 20.0464 47.3834 20.0182 47.2916 20.0081ZM4.05749 46.3969C3.99534 46.4594 3.9214 46.509 3.83996 46.5428C3.75851 46.5765 3.67118 46.5938 3.58302 46.5935C3.49486 46.5938 3.40753 46.5765 3.32609 46.5428C3.24464 46.509 3.1707 46.4594 3.10855 46.3969L1.62196 44.9104C1.55945 44.8482 1.50989 44.7743 1.47615 44.6929C1.4424 44.6114 1.42514 44.5241 1.42537 44.4359C1.42537 44.2567 1.49512 44.0881 1.62187 43.9616L2.1404 43.4429L4.57593 45.8786L4.05749 46.3969ZM5.57052 44.8839L3.13499 42.4483L3.84955 41.7337L6.28509 44.1693L5.57052 44.8839ZM7.27968 43.1747L4.84415 40.7391L8.21868 37.3646L10.6543 39.8002L7.27968 43.1747ZM11.6488 38.8056L9.21318 36.37L9.92774 35.6554L12.3634 38.091L11.6488 38.8056ZM13.6845 36.7699L13.358 37.0964L10.9223 34.6608L11.2488 34.3344C11.3109 34.2719 11.3849 34.2223 11.4663 34.1886C11.5478 34.1548 11.6351 34.1376 11.7232 34.1378C11.9025 34.1378 12.0711 34.2076 12.1977 34.3343L13.6843 35.821C13.9461 36.0827 13.9461 36.5083 13.6845 36.7699ZM47.9792 17.3631C47.657 12.8792 45.7267 8.6571 42.5442 5.47457C35.2446 -1.82481 23.3675 -1.8249 16.068 5.47457C12.9057 8.63685 10.9776 12.8308 10.6388 17.2843C10.6318 17.3764 10.643 17.4689 10.6718 17.5567C10.7005 17.6445 10.7463 17.7257 10.8065 17.7958C10.8666 17.8659 10.94 17.9234 11.0224 17.9652C11.1048 18.0069 11.1946 18.0319 11.2867 18.0389C11.6732 18.0677 12.0118 17.7782 12.0413 17.3911C12.3546 13.2727 14.1379 9.39388 17.0626 6.46925C23.8137 -0.281965 34.7986 -0.281965 41.5496 6.46925C44.4931 9.41263 46.2784 13.3174 46.5763 17.464C46.5829 17.5561 46.6076 17.646 46.649 17.7286C46.6903 17.8111 46.7475 17.8847 46.8173 17.9452C46.8872 18.0056 46.9682 18.0518 47.0558 18.0809C47.1435 18.11 47.236 18.1216 47.3281 18.115C47.4202 18.1084 47.5101 18.0837 47.5927 18.0423C47.6753 18.0009 47.7489 17.9437 47.8094 17.8739C47.8698 17.8041 47.916 17.723 47.9451 17.6354C47.9742 17.5477 47.9858 17.4552 47.9792 17.3631Z" fill="#495EE9"/>
<path d="M40.4828 7.53621C37.4974 4.55083 33.5281 2.90674 29.3061 2.90674C25.084 2.90674 21.1148 4.55083 18.1295 7.53621C11.9666 13.6991 11.9666 23.7268 18.1295 29.8897C21.1148 32.8751 25.0841 34.5191 29.3061 34.5191C33.5282 34.5191 37.4974 32.8751 40.4828 29.8897C46.6457 23.7267 46.6457 13.6991 40.4828 7.53621ZM39.4881 28.8951C36.7685 31.6149 33.1523 33.1127 29.3061 33.1127C25.4597 33.1127 21.8436 31.6149 19.1239 28.8951C13.5095 23.2807 13.5095 14.1452 19.1239 8.5309C21.8436 5.81111 25.4597 4.31327 29.3061 4.31327C33.1523 4.31327 36.7685 5.81111 39.4881 8.5309C45.1026 14.1452 45.1026 23.2807 39.4881 28.8951Z" fill="#495EE9"/>
<path d="M41.8935 18.1534C41.8466 18.0965 40.722 16.7449 38.6235 15.3928C36.6917 14.1479 33.5265 12.6641 29.4183 12.6641C25.3828 12.6641 22.2145 14.1471 20.2672 15.3912C18.155 16.7408 16.9984 18.0883 16.9503 18.1451C16.8422 18.2722 16.7828 18.4337 16.7828 18.6005C16.7828 18.7674 16.8422 18.9289 16.9503 19.056C16.9984 19.1128 18.155 20.4601 20.2672 21.8097C22.2144 23.0539 25.3828 24.5369 29.4183 24.5369C33.5265 24.5369 36.6917 23.0531 38.6235 21.8082C40.722 20.4561 41.8466 19.1046 41.8935 19.0477C41.9972 18.9218 42.0539 18.7637 42.0539 18.6005C42.0539 18.4374 41.9972 18.2793 41.8935 18.1534ZM37.8171 20.6546C36.0515 21.7841 33.1614 23.1304 29.4183 23.1304C25.7437 23.1304 22.8486 21.7824 21.067 20.6516C19.8348 19.8695 18.9476 19.0792 18.4591 18.6008C19.718 17.3698 23.6328 14.0707 29.4183 14.0707C33.1612 14.0707 36.0514 15.417 37.817 16.5465C39.0433 17.331 39.9147 18.1236 40.3899 18.6006C39.9148 19.0774 39.0433 19.8701 37.8171 20.6546Z" fill="#495EE9"/>
<path d="M29.4183 14.7754C27.3093 14.7754 25.5935 16.4912 25.5935 18.6003C25.5935 20.7093 27.3093 22.4251 29.4183 22.4251C31.5274 22.4251 33.2432 20.7093 33.2432 18.6003C33.2433 16.4912 31.5274 14.7754 29.4183 14.7754ZM29.4183 21.0187C28.0848 21.0187 26.9999 19.9339 26.9999 18.6003C26.9999 17.2668 28.0847 16.1818 29.4183 16.1818C30.7518 16.1818 31.8368 17.2667 31.8368 18.6003C31.8368 19.9339 30.7518 21.0187 29.4183 21.0187Z" fill="#495EE9"/>
</svg>
