<svg width="48" height="48" viewBox="0 0 48 48" fill="none" xmlns="http://www.w3.org/2000/svg">
<g clip-path="url(#clip0_3015_9310)">
<path d="M1.40625 24C1.40625 17.9648 3.75591 12.2911 8.02256 8.02369C12.2893 3.75619 17.9623 1.40625 23.9963 1.40625C29.376 1.40625 34.5876 3.32963 38.6701 6.82144C38.7402 6.88158 38.8216 6.92731 38.9094 6.956C38.9972 6.9847 39.0899 6.99579 39.182 6.98867C39.2741 6.98154 39.3639 6.95632 39.4463 6.91445C39.5287 6.87258 39.602 6.81489 39.6621 6.74467C39.7221 6.67445 39.7678 6.59308 39.7964 6.50521C39.825 6.41734 39.8359 6.32469 39.8287 6.23257C39.8215 6.14045 39.7961 6.05066 39.7542 5.96834C39.7122 5.88601 39.6544 5.81276 39.5842 5.75278C35.247 2.04309 29.711 0 23.9963 0C17.5866 0 11.5605 2.49647 7.02834 7.02938C2.49609 11.5624 0 17.5895 0 24C0 27.4017 0.697219 30.6892 2.07234 33.7713C2.10995 33.8556 2.16381 33.9317 2.23084 33.9953C2.29787 34.0588 2.37676 34.1085 2.46301 34.1415C2.54925 34.1745 2.64116 34.1902 2.73347 34.1877C2.82579 34.1852 2.91671 34.1645 3.00103 34.1269C3.08538 34.0893 3.1615 34.0354 3.22503 33.9684C3.28855 33.9013 3.33825 33.8224 3.37128 33.7362C3.40431 33.6499 3.42003 33.558 3.41753 33.4657C3.41503 33.3734 3.39437 33.2824 3.35672 33.1981C2.0625 30.2978 1.40625 27.2029 1.40625 24ZM42.1535 8.30822C42.0306 8.17025 41.8584 8.08617 41.674 8.07414C41.4896 8.06212 41.308 8.12313 41.1682 8.24397C41.0285 8.36482 40.9419 8.5358 40.9272 8.71996C40.9125 8.90413 40.9708 9.08669 41.0896 9.22819C44.6342 13.3271 46.5861 18.5735 46.5861 24C46.5861 30.0348 44.2364 35.7089 39.9697 39.9759C35.703 44.2438 30.03 46.5938 23.9963 46.5938C16.308 46.5938 9.2175 42.7369 5.02875 36.2768C4.97877 36.1988 4.91387 36.1314 4.83776 36.0786C4.76165 36.0257 4.67584 35.9884 4.58527 35.9688C4.4947 35.9492 4.40115 35.9477 4.31 35.9644C4.21885 35.9811 4.1319 36.0157 4.05414 36.0661C3.97639 36.1165 3.90936 36.1818 3.85693 36.2582C3.80449 36.3346 3.76767 36.4206 3.74859 36.5113C3.72951 36.6019 3.72854 36.6955 3.74574 36.7866C3.76294 36.8776 3.79797 36.9644 3.84881 37.0418C8.298 43.9036 15.8299 48 23.9963 48C30.4057 48 36.4316 45.5035 40.9639 40.9706C45.4961 36.4376 47.9922 30.4105 47.9922 24C47.9922 18.2359 45.9187 12.6628 42.1534 8.30822H42.1535Z" fill="#495EE9"/>
<path d="M32.8029 32.6327C30.2695 34.2319 27.3366 35.0771 24.3216 35.0771C23.3295 35.0771 22.3367 34.9856 21.3706 34.8047C20.9894 34.7329 20.6217 34.9849 20.5499 35.3664C20.5156 35.5497 20.5556 35.7391 20.6609 35.8929C20.7663 36.0467 20.9284 36.1524 21.1117 36.1867C22.1702 36.3843 23.2447 36.4836 24.3216 36.4834C27.6028 36.4834 30.795 35.5631 33.5533 33.8218C34.1817 33.4252 34.5567 32.7433 34.5567 31.9973C34.5567 29.2609 33.4926 26.6905 31.5597 24.7598C30.3897 23.5898 28.9863 22.738 27.4552 22.2477C29.0713 21.2113 30.1458 19.4 30.1458 17.3416C30.1458 14.1299 27.5329 11.5166 24.3216 11.5166C21.1102 11.5166 18.4973 14.1299 18.4973 17.3416C18.4973 19.4018 19.5732 21.2146 21.1919 22.2502C17.0742 23.5759 14.0859 27.4438 14.0859 31.9973C14.0859 32.7433 14.4609 33.4251 15.0893 33.8217C16.0114 34.4036 16.9865 34.8969 18.0015 35.295C18.3633 35.4367 18.7709 35.2584 18.9126 34.8969C19.0542 34.5354 18.876 34.1275 18.5145 33.9859C17.5822 33.6203 16.6866 33.1672 15.8397 32.6327C15.6222 32.4953 15.4922 32.2577 15.4922 31.9973C15.4922 27.1278 19.4527 23.1664 24.3212 23.1664C26.6792 23.1664 28.8966 24.0853 30.5654 25.7545C32.2324 27.4197 33.1505 29.6371 33.1505 31.9973C33.1505 32.2577 33.0209 32.4953 32.8029 32.6327ZM19.9036 17.3416C19.9036 14.9051 21.8855 12.9229 24.3216 12.9229C26.7576 12.9229 28.7395 14.9051 28.7395 17.3416C28.7395 19.7779 26.7577 21.7602 24.3216 21.7602C21.8855 21.7602 19.9036 19.7779 19.9036 17.3416Z" fill="#495EE9"/>
</g>
<defs>
<clipPath id="clip0_3015_9310">
<rect width="48" height="48" fill="white"/>
</clipPath>
</defs>
</svg>
