<svg width="51" height="22" viewBox="0 0 51 22" fill="none" xmlns="http://www.w3.org/2000/svg">
<path d="M27.4304 3.31602L23.8978 4.07602V1.20491L27.4304 0.458984V3.31602Z" fill="#635BFF"/>
<path fill-rule="evenodd" clip-rule="evenodd" d="M34.777 4.90639C33.3978 4.90639 32.5111 5.55379 32.0185 6.00417L31.8356 5.13157H28.7393V21.5419L32.2578 20.796L32.2719 16.8131C32.7785 17.179 33.5244 17.6997 34.763 17.6997C37.2822 17.6997 39.5763 15.6731 39.5763 11.2116C39.5622 7.13009 37.24 4.90639 34.777 4.90639ZM33.9326 14.6034C33.1022 14.6034 32.6096 14.3079 32.2719 13.9419L32.2578 8.72046C32.6237 8.31231 33.1304 8.03083 33.9326 8.03083C35.2133 8.03083 36.1 9.46639 36.1 11.3101C36.1 13.196 35.2274 14.6034 33.9326 14.6034Z" fill="#635BFF"/>
<path fill-rule="evenodd" clip-rule="evenodd" d="M50.6667 11.3523C50.6667 7.74935 48.9215 4.90639 45.5859 4.90639C42.2363 4.90639 40.2096 7.74935 40.2096 11.3242C40.2096 15.5605 42.6022 17.6997 46.0363 17.6997C47.7111 17.6997 48.9778 17.3197 49.9348 16.7849V13.9701C48.9778 14.4486 47.88 14.7442 46.4867 14.7442C45.1215 14.7442 43.9111 14.2656 43.7563 12.6049H50.6385C50.6385 12.5273 50.6436 12.3511 50.6494 12.1481C50.6573 11.8722 50.6667 11.5469 50.6667 11.3523ZM43.7141 10.0153C43.7141 8.42491 44.6852 7.76342 45.5718 7.76342C46.4304 7.76342 47.3452 8.42491 47.3452 10.0153H43.7141Z" fill="#635BFF"/>
<path d="M27.4304 5.14564H23.8978V17.4605H27.4304V5.14564Z" fill="#635BFF"/>
<path d="M19.8867 5.14566L20.1119 6.18714C20.9422 4.66714 22.5889 4.97677 23.0393 5.14566V8.3827C22.603 8.22788 21.1956 8.03084 20.3652 9.11455V17.4605H16.8467V5.14566H19.8867Z" fill="#635BFF"/>
<path d="M13.0748 2.09158L9.64074 2.82343L9.62667 14.0968C9.62667 16.1797 11.1889 17.7138 13.2719 17.7138C14.4259 17.7138 15.2704 17.5027 15.7348 17.2494V14.3923C15.2844 14.5753 13.0607 15.2227 13.0607 13.1397V8.14343H15.7348V5.14565H13.0607L13.0748 2.09158Z" fill="#635BFF"/>
<path d="M4.75704 7.96046C4.01111 7.96046 3.56074 8.17157 3.56074 8.72046C3.56074 9.31976 4.33584 9.58339 5.29743 9.91044C6.86505 10.4436 8.92831 11.1454 8.93704 13.7449C8.93704 16.2642 6.92445 17.7138 3.99704 17.7138C2.78667 17.7138 1.4637 17.4745 0.154815 16.9116V13.5619C1.33704 14.2094 2.82889 14.6879 3.99704 14.6879C4.78519 14.6879 5.34815 14.4768 5.34815 13.8293C5.34815 13.1655 4.50793 12.8621 3.49356 12.4958C1.94874 11.9379 0 11.2341 0 8.88935C0 6.39824 1.9 4.90639 4.75704 4.90639C5.92519 4.90639 7.07926 5.08935 8.24741 5.55379V8.8612C7.17778 8.28416 5.82667 7.96046 4.75704 7.96046Z" fill="#635BFF"/>
</svg>
